<?xml version="1.0" encoding="utf-8"?>
<!-- Generator: Adobe Illustrator 23.0.2, SVG Export Plug-In . SVG Version: 6.00 Build 0)  -->
<svg version="1.1" id="Layer_1" xmlns="http://www.w3.org/2000/svg" xmlns:xlink="http://www.w3.org/1999/xlink" x="0px" y="0px"
	 viewBox="0 0 512 432.3" style="enable-background:new 0 0 512 432.3;" xml:space="preserve">
<style type="text/css">
	.st0{fill:#C3A2A2;}
	.st1{fill:#B78E8E;}
	.st2{fill:#B57E73;}
	.st3{fill:#AA8080;}
	.st4{fill:#9D6B6B;}
	.st5{fill:#FCEEAC;}
	.st6{fill:#FFD064;}
	.st7{fill:#DDEAFB;}
	.st8{fill:#BED8FB;}
</style>
<g>
	<g>
		<g>
			<g>
				<g>
					<g>
						<g>
							<g>
								<path class="st0" d="M306.6,125.7c-8.3,0-15-6.7-15-15V58.5c0-11.6-9.4-21-21-21h-82.2c-11.6,0-21,9.4-21,21v52.1
									c0,8.3-6.7,15-15,15s-15-6.7-15-15V58.5c0-28.1,22.9-51,51-51h82.2c28.1,0,51,22.9,51,51v52.1
									C321.6,118.9,314.9,125.7,306.6,125.7z"/>
							</g>
							<path class="st1" d="M406.6,409.6H52.4c-24.8,0-44.9-20.1-44.9-44.9V143.3c0-24.8,20.1-44.9,44.9-44.9h354.3
								c24.8,0,44.9,20.1,44.9,44.9v221.5C451.5,389.6,431.4,409.6,406.6,409.6z"/>
							<g>
								<path class="st2" d="M406.6,98.4H52.4c-24.8,0-44.9,20.1-44.9,44.9v55.8c0,24.8,20.1,44.9,44.9,44.9h354.3
									c24.8,0,44.9-20.1,44.9-44.9v-55.8C451.5,118.5,431.4,98.4,406.6,98.4z"/>
								<path class="st2" d="M406.6,98.4H366c24.8,0,44.9,20.1,44.9,44.9v221.5c0,24.8-20.1,44.9-44.9,44.9h40.7
									c24.8,0,44.9-20.1,44.9-44.9V143.3C451.5,118.5,431.4,98.4,406.6,98.4z"/>
								<path class="st2" d="M406.6,98.4H52.4c-24.8,0-44.9,20.1-44.9,44.9v55.8c0,24.8,20.1,44.9,44.9,44.9h354.3
									c24.8,0,44.9-20.1,44.9-44.9v-55.8C451.5,118.5,431.4,98.4,406.6,98.4z"/>
							</g>
							<path class="st3" d="M406.6,98.4H52.4c-24.8,0-44.9,20.1-44.9,44.9v55.8c0,24.8,20.1,44.9,44.9,44.9h354.3
								c24.8,0,44.9-20.1,44.9-44.9v-55.8C451.5,118.5,431.4,98.4,406.6,98.4z"/>
							<path class="st4" d="M406.6,98.4h-61.5c24.8,0,44.9,20.1,44.9,44.9V244h16.6c24.8,0,44.9-20.1,44.9-44.9v-55.8
								C451.5,118.5,431.4,98.4,406.6,98.4L406.6,98.4z"/>
						</g>
					</g>
					<g>
						<g>
							<g>
								<path class="st5" d="M96.1,286.7c-15.3,0-27.7-12.4-27.7-27.7v-52.5c0-5.5,4.5-9.9,9.9-9.9h35.5c5.5,0,9.9,4.5,9.9,9.9V259
									C123.7,274.3,111.3,286.7,96.1,286.7z"/>
								<path class="st6" d="M68.4,225.4V259c0,15.3,12.4,27.7,27.7,27.7s27.7-12.4,27.7-27.7v-33.6H68.4z"/>
							</g>
						</g>
					</g>
				</g>
			</g>
		</g>
		<g>
			<g>
				<g>
					<g>
						<g>
							<g>
								<g>
									<g>
										<g>
											<g>
												<circle class="st7" cx="388.1" cy="308.4" r="116.4"/>
											</g>
										</g>
										<path class="st8" d="M388.1,192.1c-10.6,0-20.9,1.4-30.7,4.1c49.4,13.5,85.6,58.6,85.6,112.3c0,53.6-36.3,98.8-85.6,112.3
											c9.8,2.7,20.1,4.1,30.7,4.1c64.3,0,116.4-52.1,116.4-116.4C504.5,244.2,452.4,192.1,388.1,192.1L388.1,192.1z"/>
									</g>
								</g>
							</g>
						</g>
					</g>
				</g>
			</g>
		</g>
	</g>
	<g>
		<g>
			<g>
				<path d="M512,308.4c0-68-55.2-123.9-123.9-123.9c-41.5,0-78.3,20.5-100.8,51.9H131.2v-30c0-9.6-7.8-17.4-17.4-17.4H78.3
					c-9.6,0-17.4,7.8-17.4,17.4v30h-8.5c-20.6,0-37.4-16.8-37.4-37.4v-55.8c0-20.6,16.8-37.4,37.4-37.4h354.3
					c20.6,0,37.4,16.8,37.4,37.4v33.8c0,4.1,3.3,7.5,7.5,7.5s7.5-3.3,7.5-7.5v-33.8c0-28.9-23.5-52.4-52.4-52.4h-77.5V58.5
					c0-32.3-26.2-58.5-58.5-58.5h-82.2c-32.3,0-58.5,26.2-58.5,58.5v32.4H52.4C23.5,90.9,0,114.4,0,143.3v221.5
					c0,28.9,23.5,52.4,52.4,52.4h238.8c4.1,0,7.5-3.3,7.5-7.5s-3.3-7.5-7.5-7.5H52.4c-20.6,0-37.4-16.8-37.4-37.4V235.7
					c9.5,9.7,22.8,15.8,37.4,15.8h8.5v7.6c0,19.4,15.8,35.2,35.2,35.2s35.2-15.8,35.2-35.2v-7.6h147c-8.9,17.1-13.9,36.4-13.9,57
					c0,68,55.3,123.9,123.9,123.9C456.7,432.3,512,376.5,512,308.4z M284.1,90.9H174.9V58.5c0-7.4,6.1-13.5,13.5-13.5h82.2
					c7.4,0,13.5,6.1,13.5,13.5L284.1,90.9z M144.8,58.5c0-24,19.5-43.6,43.6-43.6h82.2c24,0,43.6,19.5,43.6,43.6v32.4h-15.1V58.5
					c0-15.7-12.8-28.4-28.4-28.4h-82.2c-15.7,0-28.4,12.8-28.4,28.4v32.4h-15.1L144.8,58.5z M78.3,204h35.5c1.4,0,2.5,1.1,2.5,2.5
					V218H75.8v-11.5C75.8,205.1,76.9,204,78.3,204z M116.3,259.1c0,11.1-9.1,20.2-20.2,20.2c-11.1,0-20.2-9.1-20.2-20.2v-26.2h40.4
					L116.3,259.1L116.3,259.1z M485.7,356.8c-9.5-2.7-21.4-4.9-35-6.6c5-26.8,5-56.8,0-83.6c13.6-1.7,25.5-3.9,35-6.6
					c7.3,14.6,11.4,31,11.4,48.4C497.1,325.8,493,342.2,485.7,356.8L485.7,356.8z M432.3,253.5c-11.5,0.9-23.9,1.5-36.6,1.7v-54.3
					C414.7,207.3,426.7,234,432.3,253.5z M380.7,200.7v54.4c-12.8-0.2-25.1-0.7-36.6-1.7C351.9,225.7,365.4,205.8,380.7,200.7
					L380.7,200.7z M344,363.4c11.5-0.9,23.9-1.5,36.7-1.7v54.4C365.4,411.1,351.9,391.2,344,363.4z M395.6,416.1v-54.3
					c12.8,0.2,25.1,0.7,36.6,1.7C426.7,382.8,414.7,409.6,395.6,416.1z M395.6,346.8v-76.7c14.1-0.2,27.6-0.8,40.1-1.9
					c5,25.7,5,54.6,0,80.5C423.3,347.6,409.7,347,395.6,346.8L395.6,346.8z M477.8,246.7c-8.5,2.1-18.8,3.9-30.4,5.3
					c-4.9-18.4-12.2-34-21.2-45.6C447.2,214.2,465.2,228.5,477.8,246.7z M350,206.4c-8.9,11.5-16.2,27.1-21.1,45.5
					c-11.6-1.4-21.9-3.2-30.4-5.3C311.1,228.5,329,214.3,350,206.4z M290.6,260c9.5,2.7,21.4,4.9,35,6.6c-1.6,8.5-2.7,17.5-3.3,26.9
					c-0.3,4.1,2.9,7.7,7,7.9c4.1,0.3,7.7-2.9,7.9-7c0.6-9.1,1.7-17.9,3.3-26.3c12.5,1.1,26,1.7,40.1,1.9v76.7
					c-14.1,0.2-27.6,0.8-40.1,1.9c-1.3-6.5-2.2-13.4-2.9-20.4c-0.4-4.1-4-7.2-8.1-6.8c-4.1,0.4-7.1,4-6.8,8.1
					c0.6,7.1,1.6,14,2.9,20.7c-13.6,1.7-25.5,3.9-35,6.6c-7.3-14.6-11.4-31-11.4-48.4C279.2,291.1,283.3,274.6,290.6,260L290.6,260z
					 M298.5,370.2c8.5-2.1,18.8-3.9,30.5-5.3c4.3,15.9,11,32.5,21.1,45.6C329.1,402.6,311.1,388.4,298.5,370.2L298.5,370.2z
					 M426.2,410.5c9-11.6,16.3-27.2,21.2-45.6c11.6,1.4,22,3.2,30.4,5.3C465.2,388.4,447.2,402.6,426.2,410.5z"/>
			</g>
		</g>
	</g>
</g>
</svg>
