<?xml version="1.0" encoding="utf-8"?>
<!-- Generator: Adobe Illustrator 23.0.2, SVG Export Plug-In . SVG Version: 6.00 Build 0)  -->
<svg version="1.1" id="Capa_1" xmlns="http://www.w3.org/2000/svg" xmlns:xlink="http://www.w3.org/1999/xlink" x="0px" y="0px"
	 viewBox="0 0 512 512" style="enable-background:new 0 0 512 512;" xml:space="preserve">
<style type="text/css">
	.st0{fill:#FFE1BD;}
	.st1{fill:#FFD3A3;}
	.st2{fill:#FFF1CE;}
	.st3{fill:#B77158;}
</style>
<g>
	<g>
		<path class="st0" d="M502.7,405.8L424.5,87.5H206.3c-5.3,0-10.4,2.1-14.1,5.9l-20,20c-7.8,7.8-20.5,7.8-28.3,0l-20-20
			c-3.8-3.8-8.8-5.9-14.1-5.9H87.5L9.3,405.8c-1.2,4.9-1.8,10-1.8,15.1v3.6c0,44.2,35.8,80,80,80h204.6c5.3,0,10.4-2.1,14.1-5.9
			l20-20c7.8-7.8,20.5-7.8,28.3,0l20,20c3.8,3.8,8.8,5.9,14.1,5.9h35.8c44.2,0,80-35.8,80-80v-3.6
			C504.5,415.8,503.9,410.7,502.7,405.8z"/>
	</g>
	<g>
		<path class="st1" d="M225.3,224.5v-137h-19c-5.3,0-10.4,2.1-14.1,5.9l-20,20c-7.8,7.8-20.5,7.8-28.3,0l-20-20
			c-3.8-3.8-8.8-5.9-14.1-5.9H87.5L9.3,405.8c-1.2,4.9-1.8,10-1.8,15.1v3.6c0,44.2,35.8,80,80,80h204.6c5.3,0,10.4-2.1,14.1-5.9
			l20-20c7.8-7.8,20.5-7.8,28.3,0l20,20c3.8,3.8,8.8,5.9,14.1,5.9h35.8c44.2,0,80-35.8,80-80h-79.2
			C314.9,424.5,225.3,335,225.3,224.5L225.3,224.5z"/>
	</g>
	<g>
		<path class="st2" d="M7.5,84.2v340.3c0-38.7,27.4-70.9,63.9-78.4c9.3-1.9,16.1-9.9,16.1-19.5V27.6C87.5,13.9,74,4.1,61,8.6
			C29.9,19.6,7.5,49.3,7.5,84.2L7.5,84.2z"/>
	</g>
	<g>
		<path class="st2" d="M451,8.6c-12.9-4.5-26.5,5.2-26.5,18.9v164.7c0,5.3,2.1,10.4,5.9,14.1l20,20c7.8,7.8,7.8,20.5,0,28.3l-20,20
			c-3.8,3.8-5.9,8.8-5.9,14.1v37.9c0,9.5,6.8,17.6,16.1,19.5c36.5,7.5,63.9,39.7,63.9,78.4V84.2C504.5,49.3,482.1,19.6,451,8.6
			L451,8.6z"/>
	</g>
	<g>
		<circle class="st3" cx="170" cy="183.1" r="30"/>
	</g>
	<g>
		<path d="M453.4,1.6c-2.9-1-6-1.5-9-1.5C429.3,0,417,12.4,417,27.6V80H206.3c-7.3,0-14.3,2.9-19.4,8.1l-20,20
			c-4.9,4.9-12.8,4.9-17.7,0l-20-20c-5.2-5.2-12.1-8.1-19.4-8.1H95V27.6c0-8.9-4.3-17.3-11.6-22.5C76-0.1,67-1.4,58.5,1.6
			C23.5,13.8,0,47,0,84.2v340.3C0,472.7,39.3,512,87.5,512h204.6c7.3,0,14.3-2.9,19.4-8.1l20-20c4.9-4.9,12.8-4.9,17.7,0l20,20
			c5.2,5.2,12.1,8.1,19.4,8.1h35.8c18.2,0,35.7-5.5,50.5-16c3.4-2.4,4.2-7.1,1.8-10.5c-2.4-3.4-7.1-4.2-10.5-1.8
			c-12.3,8.7-26.7,13.3-41.8,13.3h-35.8c-3.3,0-6.5-1.3-8.8-3.7l-20-20c-10.7-10.7-28.2-10.7-38.9,0l-20,20
			c-2.4,2.4-5.5,3.7-8.8,3.7H87.5c-40,0-72.5-32.5-72.5-72.5c0-34.3,24.3-64.2,57.9-71c12.8-2.6,22.1-13.9,22.1-26.8v-51
			c0-4.1-3.4-7.5-7.5-7.5s-7.5,3.4-7.5,7.5v51c0,5.9-4.2,10.9-10.1,12.1c-23,4.7-42.4,18.4-54.9,36.8V84.2
			c0-30.8,19.5-58.3,48.5-68.4c3.8-1.3,7.9-0.7,11.2,1.6c3.4,2.4,5.3,6.1,5.3,10.3v218.1c0,4.1,3.4,7.5,7.5,7.5s7.5-3.4,7.5-7.5V95
			h14.7c3.3,0,6.5,1.3,8.8,3.7l20,20c5.4,5.4,12.4,8,19.4,8c7,0,14.1-2.7,19.4-8l20-20c2.4-2.4,5.5-3.7,8.8-3.7H417v97.2
			c0,7.3,2.9,14.3,8.1,19.4l20,20c2.4,2.4,3.7,5.5,3.7,8.8c0,3.3-1.3,6.5-3.7,8.8l-20,20c-5.2,5.2-8.1,12.1-8.1,19.4v37.9
			c0,12.9,9.3,24.2,22.1,26.8c33.5,6.9,57.9,36.7,57.9,71c0,14.6-4.3,28.7-12.5,40.7c-2.3,3.4-1.4,8.1,2,10.4
			c1.3,0.9,2.8,1.3,4.2,1.3c2.4,0,4.8-1.1,6.2-3.3c9.9-14.5,15.1-31.5,15.1-49.2V84.2C512,47,488.5,13.8,453.4,1.6L453.4,1.6z
			 M442.1,338.8c-6-1.2-10.1-6.2-10.1-12.1v-37.9c0-3.3,1.3-6.5,3.7-8.8l20-20c10.7-10.7,10.7-28.2,0-38.9l-20-20
			c-2.3-2.3-3.7-5.5-3.7-8.8V27.6c0-6.9,5.6-12.6,12.4-12.6c1.4,0,2.7,0.2,4.1,0.7c29,10.2,48.5,37.7,48.5,68.4v291.5
			C484.5,357.1,465.1,343.5,442.1,338.8z"/>
		<path d="M207.5,183.1c0-20.7-16.8-37.5-37.5-37.5s-37.5,16.8-37.5,37.5s16.8,37.5,37.5,37.5S207.5,203.7,207.5,183.1z M170,205.6
			c-12.4,0-22.5-10.1-22.5-22.5c0-12.4,10.1-22.5,22.5-22.5s22.5,10.1,22.5,22.5C192.5,195.5,182.4,205.6,170,205.6z"/>
		<path d="M377.3,319.6c-2.9-2.9-7.7-2.9-10.6,0L352,334.3l-14.7-14.7c-2.9-2.9-7.7-2.9-10.6,0c-2.9,2.9-2.9,7.7,0,10.6l14.7,14.7
			l-14.7,14.7c-2.9,2.9-2.9,7.7,0,10.6c1.5,1.5,3.4,2.2,5.3,2.2s3.8-0.7,5.3-2.2l14.7-14.7l14.7,14.7c1.5,1.5,3.4,2.2,5.3,2.2
			s3.8-0.7,5.3-2.2c2.9-2.9,2.9-7.7,0-10.6l-14.7-14.7l14.7-14.7C380.2,327.3,380.2,322.5,377.3,319.6L377.3,319.6z"/>
		<path d="M240,190.6h7.5c4.1,0,7.5-3.4,7.5-7.5c0-4.1-3.4-7.5-7.5-7.5H240c-4.1,0-7.5,3.4-7.5,7.5
			C232.5,187.2,235.9,190.6,240,190.6z"/>
		<path d="M355.6,231.2c0.1,0,0.3,0,0.4,0c4,0,7.3-3.1,7.5-7.1c0-0.8,0.1-1.5,0.1-2.3c0-5.1-0.8-10.2-2.5-15c-1.3-3.9-5.6-6-9.5-4.7
			c-3.9,1.3-6,5.6-4.7,9.5c1.1,3.2,1.7,6.6,1.7,10.1c0,0.5,0,1.1,0,1.6C348.2,227.5,351.4,231,355.6,231.2L355.6,231.2z"/>
		<path d="M299.2,183.1c0-4.1-3.4-7.5-7.5-7.5H277c-4.1,0-7.5,3.4-7.5,7.5c0,4.1,3.4,7.5,7.5,7.5h14.7
			C295.8,190.6,299.2,187.2,299.2,183.1z"/>
		<path d="M310,260.5c0-4.1-3.4-7.5-7.5-7.5h-14.7c-4.1,0-7.5,3.4-7.5,7.5s3.4,7.5,7.5,7.5h14.7C306.7,268,310,264.7,310,260.5z"/>
		<path d="M335.2,194.9c2.7,0,5.3-1.5,6.7-4c1.9-3.7,0.5-8.2-3.2-10.1c-5.2-2.7-10.9-4.4-16.8-5c-4.1-0.4-7.8,2.6-8.2,6.7
			c-0.4,4.1,2.6,7.8,6.7,8.2c4,0.4,7.8,1.5,11.3,3.4C332.8,194.7,334,194.9,335.2,194.9L335.2,194.9z"/>
		<path d="M331.6,265.3c0.9,0,1.9-0.2,2.8-0.5c5.5-2.2,10.4-5.4,14.7-9.4c3-2.9,3.1-7.6,0.3-10.6c-2.9-3-7.6-3.1-10.6-0.3
			c-2.9,2.8-6.2,4.9-9.9,6.4c-3.8,1.5-5.7,5.9-4.2,9.7C325.8,263.5,328.6,265.3,331.6,265.3L331.6,265.3z"/>
		<path d="M209,444.7c0.7,0,1.3-0.1,2-0.3c5.5-1.5,10.7-3.9,15.5-7.1c3.4-2.3,4.4-7,2.1-10.4c-2.3-3.4-7-4.4-10.4-2.1
			c-3.4,2.3-7.2,4-11.2,5.1c-4,1.1-6.3,5.3-5.2,9.2C202.7,442.6,205.7,444.7,209,444.7L209,444.7z"/>
		<path d="M199.4,268h14.7c4.1,0,7.5-3.4,7.5-7.5s-3.4-7.5-7.5-7.5h-14.7c-4.1,0-7.5,3.4-7.5,7.5S195.2,268,199.4,268z"/>
		<path d="M162.7,434.5c4.5,3.6,9.4,6.4,14.8,8.5c0.9,0.3,1.8,0.5,2.6,0.5c3,0,5.9-1.9,7-4.9c1.5-3.9-0.5-8.2-4.4-9.7
			c-3.9-1.5-7.4-3.5-10.7-6.1c-3.2-2.6-7.9-2.1-10.5,1.1C158.9,427.2,159.4,431.9,162.7,434.5z"/>
		<path d="M237.7,415.4c0.8,0.3,1.7,0.5,2.6,0.5c3.1,0,5.9-1.9,7.1-4.9c1.9-5.4,3-11,3.2-16.7c0.1-4.1-3.1-7.6-7.3-7.7
			c-0.1,0-0.2,0-0.2,0c-4,0-7.4,3.2-7.5,7.3c-0.1,4.1-0.9,8.2-2.3,12.1C231.8,409.6,233.8,414,237.7,415.4L237.7,415.4z"/>
		<path d="M150,323.7c4.1,0,7.5-3.4,7.5-7.5v-14.7c0-4.1-3.4-7.5-7.5-7.5c-4.1,0-7.5,3.4-7.5,7.5v14.7
			C142.5,320.3,145.9,323.7,150,323.7z"/>
		<path d="M142.5,360.4c0,4.1,3.4,7.5,7.5,7.5c4.1,0,7.5-3.4,7.5-7.5v-14.7c0-4.1-3.4-7.5-7.5-7.5c-4.1,0-7.5,3.4-7.5,7.5V360.4z"/>
		<path d="M164.9,279c2.6-3,5.7-5.5,9.2-7.4c3.7-1.9,5.1-6.5,3.1-10.1c-1.9-3.7-6.5-5.1-10.1-3.1c-5.2,2.8-9.8,6.4-13.6,10.9
			c-2.7,3.2-2.3,7.9,0.8,10.6c1.4,1.2,3.1,1.8,4.9,1.8C161.3,281.7,163.5,280.8,164.9,279L164.9,279z"/>
		<path d="M142.5,392.5c0,4.7,0.6,9.4,1.8,13.9c0.9,3.4,3.9,5.6,7.2,5.6c0.6,0,1.3-0.1,1.9-0.3c4-1.1,6.4-5.2,5.3-9.2
			c-0.9-3.3-1.3-6.6-1.3-10v-2.6c0-4.1-3.4-7.5-7.5-7.5c-4.1,0-7.5,3.4-7.5,7.5V392.5z"/>
		<path d="M258.3,253h-14.7c-4.1,0-7.5,3.4-7.5,7.5s3.4,7.5,7.5,7.5h14.7c4.1,0,7.5-3.4,7.5-7.5S262.5,253,258.3,253L258.3,253z"/>
		<path d="M254.2,368.8c1.9-3.5,4.4-6.6,7.5-9.2c3.2-2.7,3.6-7.4,0.9-10.6c-2.7-3.2-7.4-3.6-10.6-0.9c-4.5,3.8-8.3,8.3-11.1,13.5
			c-2,3.6-0.6,8.2,3,10.2c1.1,0.6,2.4,0.9,3.6,0.9C250.3,372.7,252.9,371.3,254.2,368.8z"/>
		<path d="M284.5,352.4h7.5c4.1,0,7.5-3.4,7.5-7.5s-3.4-7.5-7.5-7.5h-7.5c-4.1,0-7.5,3.4-7.5,7.5S280.3,352.4,284.5,352.4z"/>
	</g>
</g>
</svg>
