<?xml version="1.0" encoding="utf-8"?>
<!-- Generator: Adobe Illustrator 24.0.0, SVG Export Plug-In . SVG Version: 6.00 Build 0)  -->
<svg version="1.1" id="Layer_1" xmlns="http://www.w3.org/2000/svg" xmlns:xlink="http://www.w3.org/1999/xlink" x="0px" y="0px"
	 viewBox="0 0 801.5 509.1" style="enable-background:new 0 0 801.5 509.1;" xml:space="preserve">
<style type="text/css">
	.st0{fill:#FDBA12;}
	.st1{fill:#FFFFFF;}
</style>
<polyline class="st0" points="148.4,91.4 148.4,211.6 5,91.4 5,257.7 148.4,377.9 148.4,257.7 291.8,377.9 291.8,211.6 "/>
<polyline class="st1" points="414.6,134.3 414.6,181.2 414.3,181.2 379.3,134.3 363.5,134.3 363.5,211.6 380.8,211.6 380.8,164.9 
	381.1,164.9 416.2,211.6 432,211.6 432,134.3 "/>
<g>
	<path class="st1" d="M531.5,199.8c-4.9,0-5.7-3.6-5.7-9.3v-21.8h14.8v-11.4h-14.7V141l-16.7,3.7v12.7h-7.7v11.4h7.6v21.4
		c0,9.1,0.2,13.7,3.8,17.9c3,3.6,8,5,14.3,5c5.1,0,10.1-1,14.3-2.9l2.1-1l-2.2-11.4C538.9,198.6,534.9,199.8,531.5,199.8"/>
	<path class="st1" d="M557.9,150.9c-4.2,0-9-3-9-8.4c0-5.5,4.5-8.6,9-8.6c4.5,0,8.9,3.1,8.9,8.5
		C566.9,147.7,562.2,150.9,557.9,150.9"/>
</g>
<rect x="549.7" y="157.3" class="st1" width="16.7" height="54.3"/>
<g>
	<path class="st1" d="M671.7,155.8c-6.6,0-12.7,2.3-17.8,6.3l-1-4.7h-14.8v54.3h16.7v-36.5c3.1-2.7,7.7-4.3,11.4-4.3
		c5.1,0,6.3,3.1,6.3,7.8v33h16.8v-36C689.4,163.5,684,155.8,671.7,155.8"/>
</g>
<polyline class="st1" points="763.1,134.9 763.1,211.6 779.9,211.6 779.9,131.2 "/>
<g>
	<path class="st1" d="M478.3,194.9c-1.3,1.7-5.4,4.7-9.4,4.7c-8.5,0-10.3-8.3-10.3-15.2c0-10.4,5.1-14.8,10.6-14.8c3.3,0,7,2,9,3.8
		V194.9z M496.7,200.4c-1.2,0-1.7-0.8-1.7-1.9v-41.1h-14.5l-1.2,4.7c-2.3-3.4-7.4-6.2-13.6-6.2c-12.3,0-24.5,10-24.5,29.8
		c0,14.8,7.5,27.5,23.5,27.5c5.5,0,12.6-3.1,15.6-6.6h0.2c1.4,3.2,4.1,5.1,10.7,5.1h8.6v-11.3"/>
	<path class="st1" d="M734.2,194.9c-1.3,1.7-5.3,4.7-9.4,4.7c-8.5,0-10.3-8.3-10.3-15.2c0-10.4,5.1-14.8,10.6-14.8c3.4,0,7,2,9,3.8
		V194.9z M752.6,200.4c-1.2,0-1.7-0.8-1.7-1.9v-41.1h-14.5l-1.1,4.7c-2.3-3.4-7.4-6.2-13.6-6.2c-12.3,0-24.5,10-24.5,29.8
		c0,14.8,7.5,27.5,23.6,27.5c5.5,0,12.6-3.1,15.6-6.6h0.2c1.4,3.2,4.1,5.1,10.7,5.1h8.6v-11.3"/>
	<path class="st1" d="M602.1,199.9c-8.3,0-10.6-7.5-10.6-15.7c0-8.1,2.7-15.3,10.9-15.3c8.3,0,10.6,7.3,10.6,15.5
		C613,192.6,610.3,199.9,602.1,199.9 M602.6,155.8c-18.1,0-28.5,12.1-28.5,28.5c0,16.6,8.8,28.8,27.7,28.8
		c18.1,0,28.4-12.2,28.4-28.5C630.3,167.9,621.5,155.8,602.6,155.8"/>
	<path class="st1" d="M397,297.4c-2.4,0.9-5.8,1.1-9.1,1.1H381v-20.8c1.8,0,4.2-0.1,5.6-0.1c4.3,0,7.6,0.1,10.8,1.6
		c3.2,1.4,5.5,4.6,5.5,9.2C402.8,292.9,400.5,296.1,397,297.4 M381,248.1h5.5c6.8,0,10.9,2.7,10.9,8c0,7-3.8,9.4-12.2,9.4H381V248.1
		z M402.7,269.8v-0.1c7.7-1.7,12-8.5,12-16c0-13.2-9.7-19-29.6-19h-21.7V312h25.6c16.1,0,31.7-4.3,31.7-22.9
		C420.8,278,413.2,270.9,402.7,269.8"/>
</g>
<polyline class="st1" points="586.5,280.8 603.2,257.7 585.1,257.7 571.5,279.5 571.3,279.5 571.3,231.6 554.6,235.3 554.6,312 
	571.3,312 571.3,287.2 571.5,287.2 585.4,312 605.4,312 "/>
<g>
	<path class="st1" d="M526.1,256.2c-6.6,0-12.7,2.2-17.9,6.2l-0.9-4.7h-14.8V312h16.7v-36.5c3.1-2.7,7.7-4.3,11.4-4.3
		c5.1,0,6.4,3.1,6.4,7.8v33h16.7v-36C543.7,263.9,538.4,256.2,526.1,256.2"/>
	<path class="st1" d="M463.5,295.3c-1.3,1.7-5.3,4.7-9.4,4.7c-8.5,0-10.3-8.3-10.3-15.2c0-10.4,5.1-14.8,10.6-14.8c3.3,0,7,2,9,3.8
		V295.3z M482,300.8c-1.2,0-1.7-0.8-1.7-1.9v-41.1h-14.5l-1.1,4.7c-2.3-3.4-7.4-6.3-13.6-6.3c-12.3,0-24.6,10-24.6,29.8
		c0,14.8,7.5,27.5,23.5,27.5c5.5,0,12.6-3.1,15.6-6.6h0.2c1.4,3.2,4.1,5.1,10.7,5.1h8.6v-11.3"/>
</g>
<g>
	<path class="st1" d="M40.2,496.1l-4-11.6H17.4l-4,11.6H10l15.2-42.3h3.3l15.3,42.3H40.2z M26.8,457.6L26.8,457.6l-8.2,23.6h16.3
		L26.8,457.6z"/>
	<path class="st1" d="M76.8,496.8c-3.9,0-7.9-1-10.7-2.4l0.2-3.9c2.5,1.4,6,2.8,10.2,2.8c7,0,10.5-3.6,10.5-8.1s-4.1-7-9-9l-1.5-0.6
		c-5.4-2.1-10.1-4.8-10.1-11.9c0-6.7,5.2-10.7,13.2-10.7c4.1,0,6.8,0.8,9.2,2l-0.3,3.7c-3-1.3-5.7-2.2-8.7-2.2c-5.7,0-9.7,2-9.7,7.2
		c0,4.5,3.3,6.5,8.6,8.6l1.5,0.6c6.2,2.4,10.5,5.8,10.5,12.4C90.7,491.9,85.6,496.8,76.8,496.8z"/>
	<path class="st1" d="M111.3,496.8c-9.3,0-11.9-5.3-11.9-13.1v-19.4h3.4v19.5c0,5.9,2.2,9.8,8.6,9.8c6.7,0,8.5-3.9,8.5-9.8v-19.5
		h3.4v19.4C123.2,491.8,119.8,496.8,111.3,496.8z"/>
	<path class="st1" d="M146.9,496.8c-5.5,0-8.3-3.2-9.7-5.6h-0.1l-0.3,4.9h-3.2c0,0,0.3-1.9,0.3-9.1v-35.6h3.4v17.8h0.1
		c2-2.7,4.3-5.5,10.1-5.5c9,0,11.7,7.6,11.7,16.3C159.2,488.6,156.3,496.8,146.9,496.8z M155.7,478c0-6.7-3.5-11.2-9-11.2
		c-5.1,0-9.3,4.8-9.3,9.9v6.5c0,6,4.7,10.3,9.2,10.3c6.5,0,9.1-5.3,9.1-11.7V478z"/>
	<path class="st1" d="M174.5,496.8c-3.1,0-5.8-0.8-8.4-2.2l0.3-3.3c2.7,1.5,5.1,2.4,8.3,2.4c5.5,0,7.8-2.5,7.8-5.6
		c0-3.6-2.9-5-7-6.7l-2-0.8c-4-1.7-7.2-3.9-7.2-8.7c0-4.3,2.8-8.2,10.4-8.2c3.5,0,6,1,7.8,2l-0.3,3.4c-3.3-2-6-2.3-7.6-2.3
		c-4.8,0-6.8,2-6.8,4.8c0,3,2.3,4.5,6.9,6.3l2,0.8c4.4,1.8,7.4,4.1,7.4,8.9C185.9,493,182.3,496.8,174.5,496.8z"/>
	<path class="st1" d="M196.6,457.7c-1.5,0-2.8-1.2-2.8-2.7s1.3-2.8,2.8-2.8c1.5,0,2.7,1.3,2.7,2.8S198.1,457.7,196.6,457.7z
		 M194.9,496.1v-31.7h3.4v31.7H194.9z"/>
	<path class="st1" d="M229.2,496.1l-0.3-4.8h-0.1c-1.8,2.7-4.3,5.5-9.9,5.5c-9,0-11.8-7.6-11.8-16.3c0-8.7,2.9-16.8,12.3-16.8
		c5.5,0,8.3,3.2,9.4,5.3h0.1v-17.6h3.4v36.1c0,6.3,0.3,8.7,0.3,8.7H229.2z M228.9,477.1c0-6-4.7-10.3-9-10.3
		c-6.5,0-9.2,5.3-9.2,11.7v3.9c0,6.7,3.5,11.2,9,11.2c5,0,9.3-4.8,9.3-9.8V477.1z"/>
	<path class="st1" d="M245.1,457.7c-1.5,0-2.8-1.2-2.8-2.7s1.3-2.8,2.8-2.8c1.5,0,2.7,1.3,2.7,2.8S246.5,457.7,245.1,457.7z
		 M243.4,496.1v-31.7h3.4v31.7H243.4z"/>
	<path class="st1" d="M277.6,496.1l-0.3-5h-0.1c-1.9,3-4.2,5.7-9.8,5.7c-8.9,0-11.9-7.6-11.9-16.3c0-8.7,3.1-16.8,12.4-16.8
		c5.5,0,8.1,3.2,9.4,5.6h0.1l0.2-4.9h3.2c0,0-0.3,2.7-0.3,9.1v14c0,5.3,0.3,8.7,0.3,8.7H277.6z M277.2,477.1c0-6-4.3-10.3-8.8-10.3
		c-6.5,0-9.3,5.3-9.3,11.7v3.9c0,6.7,3.6,11.2,9,11.2c5,0,9-4.8,9-9.8V477.1z"/>
	<path class="st1" d="M305,467.2c0,0-0.9-0.1-1.7-0.1c-5.5,0-9,5-9,8.9v20.1h-3.4v-31.7h3.3v5.3h0.1c-0.1,0.3,2.5-6,9.7-6
		c0.5,0,1.2,0.1,1.2,0.1L305,467.2z"/>
	<path class="st1" d="M319.3,509.1h-3.9c3.2-6,6.2-13,6.2-13l-12.6-31.7h3.7l10.4,28h0.1l10.5-28h3.6
		C337.3,464.3,327.9,490.1,319.3,509.1z"/>
	<path class="st1" d="M370.5,496.8c-9.5,0-12.8-6.5-12.8-16.4c0-9.7,3.6-16.7,13.1-16.7c9.5,0,12.8,6.5,12.8,16.4
		C383.6,489.8,380,496.8,370.5,496.8z M380,478c0-7.2-3.5-11.3-9.3-11.3c-5.9,0-9.5,4.4-9.5,11.6v4.1c0,7.2,3.4,11.3,9.3,11.3
		c5.8,0,9.5-4.4,9.5-11.6V478z"/>
	<path class="st1" d="M398.8,467.4v28.7h-3.4v-28.7h-7.9v-3h7.9v-4.6c0-5.4,2.5-9.1,8.1-9.1c1.5,0,3.6,0.4,3.6,0.4l-0.2,3
		c0,0-1.4-0.3-3.2-0.3c-3.6,0-4.9,2.6-4.9,6.2v4.4h9v3H398.8z"/>
	<path class="st1" d="M451.4,496.1c-8.3-9-18.7-21.1-18.7-21.1v21.1h-3.5v-42.3h3.5v19.8l17.2-19.8h4.6l-17.9,20.4
		c0,0,7.4,8.5,19.9,21.9H451.4z"/>
	<path class="st1" d="M475.7,496.8c-13.4,0-15.2-10.7-15.2-21.7c0-10.3,1.9-22,16-22c4.3,0,6.6,1.1,8.9,2.1l-0.2,3.6
		c-2.7-1.3-5.2-2.2-8.5-2.2c-8.2,0-12.6,5.1-12.6,14.9v6.9c0,10.4,4.8,15,12.6,15c3.4,0,6.1-1.5,9-3.1l0.3,3.7
		C483.1,495.6,480,496.8,475.7,496.8z"/>
	<path class="st1" d="M504.1,496.1h-10.6v-42.3h10.9c6.1,0,12.5,2,12.5,10c0,6-3,8.4-7.5,9.7v0.1c4.3,0.7,8.8,3.1,8.8,10.2
		C518.2,492.1,513.1,496.1,504.1,496.1z M504.2,457H497v15.2h6.5c6.3,0,9.8-2.9,9.8-8.1C513.3,458.6,509.5,457,504.2,457z
		 M503.7,475.6H497v17.2h6.9c6.5,0,10.7-2.3,10.7-8.6C514.6,478,510.5,475.6,503.7,475.6z"/>
	<path class="st1" d="M556.2,496.8c-13.4,0-15-10.8-15-21.7c0-10.1,1.7-22,16.7-22c5.3,0,8.1,1.4,10.5,2.5l-0.3,3.7
		c-2.4-1.3-5.8-2.7-10-2.7c-9,0-13.3,5.2-13.3,15.1v6.8c0,11,5.1,14.9,11.8,14.9c5.1,0,9.1-2.2,9.1-2.2v-13.5h-8.4v-3.5h11.9V493
		C569.2,493,564.1,496.8,556.2,496.8z"/>
	<path class="st1" d="M593.3,467.2c0,0-0.9-0.1-1.7-0.1c-5.5,0-9,5-9,8.9v20.1h-3.4v-31.7h3.3v5.3h0.1c-0.1,0.3,2.5-6,9.7-6
		c0.5,0,1.2,0.1,1.2,0.1L593.3,467.2z"/>
	<path class="st1" d="M611.6,496.8c-9.5,0-12.8-6.5-12.8-16.4c0-9.7,3.6-16.7,13.1-16.7c9.5,0,12.8,6.5,12.8,16.4
		C624.7,489.8,621.1,496.8,611.6,496.8z M621.1,478c0-7.2-3.5-11.3-9.3-11.3c-5.9,0-9.5,4.4-9.5,11.6v4.1c0,7.2,3.4,11.3,9.3,11.3
		c5.8,0,9.5-4.4,9.5-11.6V478z"/>
	<path class="st1" d="M645.3,496.8c-9.3,0-11.9-5.3-11.9-13.1v-19.4h3.4v19.5c0,5.9,2.2,9.8,8.6,9.8c6.7,0,8.5-3.9,8.5-9.8v-19.5
		h3.4v19.4C657.2,491.8,653.8,496.8,645.3,496.8z"/>
	<path class="st1" d="M680.2,496.8c-5.5,0-8.3-3.2-9.4-5.3h-0.1v17.6h-3.4v-44.8h3.2v5.1h0.1c1.9-3,4.4-5.8,10.1-5.8
		c9,0,11.8,7.6,11.8,16.3C692.6,488.6,689.6,496.8,680.2,496.8z M689,478c0-6.7-3.4-11.2-9-11.2c-4.9,0-9.3,4.8-9.3,9.8v6.6
		c0,6,4.7,10.3,9,10.3c6.5,0,9.2-5.3,9.2-11.7V478z"/>
	<path class="st1" d="M726.7,478.9h-6.4v17.2h-3.5v-42.3h10.9c8.5,0,13.7,3.7,13.7,12.2C741.4,474.7,736.2,478.9,726.7,478.9z
		 M727.5,457h-7.2v18.5h6.1c9,0,11.3-3.7,11.3-9.4C737.7,459.8,734.4,457,727.5,457z"/>
	<path class="st1" d="M749.5,496.1v-42.3h3.4v38.8l17.4,0.1v3.4H749.5z"/>
	<path class="st1" d="M791.3,496.8c-13.4,0-15.2-10.7-15.2-21.7c0-10.3,1.9-22,16-22c4.3,0,6.6,1.1,8.9,2.1l-0.2,3.6
		c-2.7-1.3-5.2-2.2-8.5-2.2c-8.2,0-12.6,5.1-12.6,14.9v6.9c0,10.4,4.8,15,12.6,15c3.4,0,6.1-1.5,9-3.1l0.3,3.7
		C798.7,495.6,795.6,496.8,791.3,496.8z"/>
</g>
<g>
	<path class="st1" d="M0,3.3c3.2-0.5,7.3-1,12.6-1c6.5,0,11.3,1.5,14.3,4.2c2.8,2.4,4.5,6.1,4.5,10.7c0,4.6-1.4,8.2-3.9,10.9
		c-3.5,3.7-9.1,5.6-15.6,5.6c-2,0-3.8-0.1-5.3-0.5v20.4H0V3.3z M6.6,27.9c1.4,0.4,3.2,0.5,5.4,0.5c7.9,0,12.8-3.9,12.8-10.9
		c0-6.7-4.8-10-12-10c-2.9,0-5.1,0.2-6.2,0.5V27.9z"/>
	<path class="st1" d="M71.2,35.1c0,13.5-9.4,19.4-18.2,19.4c-9.9,0-17.5-7.3-17.5-18.8c0-12.2,8-19.4,18.1-19.4
		C64.1,16.2,71.2,23.9,71.2,35.1z M42.2,35.4c0,8,4.6,14.1,11.1,14.1c6.3,0,11.1-6,11.1-14.2c0-6.2-3.1-14.1-11-14.1
		C45.6,21.2,42.2,28.5,42.2,35.4z"/>
	<path class="st1" d="M81.7,17.1l4.8,18.6c1.1,4.1,2,7.9,2.7,11.6h0.2c0.8-3.7,2-7.6,3.2-11.6l6-18.7h5.6l5.7,18.3
		c1.4,4.4,2.4,8.2,3.2,11.9h0.2c0.6-3.7,1.6-7.6,2.8-11.9l5.2-18.4h6.6l-11.8,36.6h-6l-5.6-17.5c-1.3-4.1-2.3-7.7-3.2-12h-0.2
		c-0.9,4.4-2,8.2-3.3,12.1l-5.9,17.4h-6l-11-36.6H81.7z"/>
	<path class="st1" d="M137.6,36.6c0.2,9,5.9,12.7,12.5,12.7c4.8,0,7.6-0.8,10.1-1.9l1.1,4.8c-2.3,1.1-6.3,2.3-12.2,2.3
		c-11.3,0-18-7.4-18-18.4s6.5-19.7,17.1-19.7c11.9,0,15.1,10.5,15.1,17.2c0,1.4-0.2,2.4-0.2,3.1H137.6z M157.1,31.8
		c0.1-4.2-1.7-10.8-9.2-10.8c-6.7,0-9.7,6.2-10.2,10.8H157.1z"/>
	<path class="st1" d="M171.7,28.5c0-4.3-0.1-8-0.3-11.4h5.8l0.2,7.2h0.3c1.7-4.9,5.7-8,10.1-8c0.8,0,1.3,0.1,1.9,0.2v6.3
		c-0.7-0.2-1.4-0.2-2.3-0.2c-4.7,0-8,3.6-8.9,8.5c-0.2,0.9-0.3,2-0.3,3.1v19.5h-6.6V28.5z"/>
	<path class="st1" d="M199.4,36.6c0.2,9,5.9,12.7,12.5,12.7c4.8,0,7.6-0.8,10.1-1.9l1.1,4.8c-2.3,1.1-6.3,2.3-12.2,2.3
		c-11.3,0-18-7.4-18-18.4s6.5-19.7,17.1-19.7c11.9,0,15.1,10.5,15.1,17.2c0,1.4-0.2,2.4-0.2,3.1H199.4z M218.9,31.8
		c0.1-4.2-1.7-10.8-9.2-10.8c-6.7,0-9.7,6.2-10.2,10.8H218.9z"/>
	<path class="st1" d="M265.1,0v44.2c0,3.2,0.1,7,0.3,9.4h-6l-0.3-6.3H259c-2,4.1-6.5,7.2-12.5,7.2c-8.8,0-15.6-7.5-15.6-18.6
		c-0.1-12.2,7.5-19.6,16.4-19.6c5.6,0,9.4,2.6,11,5.6h0.2V0H265.1z M258.4,32c0-0.8-0.1-2-0.3-2.8c-1-4.2-4.6-7.7-9.6-7.7
		c-6.9,0-11,6-11,14.1c0,7.4,3.6,13.5,10.8,13.5c4.5,0,8.5-2.9,9.7-7.9c0.2-0.9,0.3-1.8,0.3-2.9V32z"/>
	<path class="st1" d="M292.4,3.4c2.9-0.6,7.4-1.1,12-1.1c6.6,0,10.8,1.1,14,3.7c2.6,2,4.2,5,4.2,9c0,4.9-3.2,9.2-8.6,11.2v0.2
		c4.8,1.2,10.5,5.2,10.5,12.8c0,4.4-1.7,7.7-4.3,10.2c-3.6,3.2-9.3,4.8-17.6,4.8c-4.5,0-8-0.3-10.2-0.6V3.4z M298.9,24.3h6
		c7,0,11-3.6,11-8.5c0-6-4.5-8.3-11.2-8.3c-3,0-4.8,0.2-5.8,0.5V24.3z M298.9,48.7c1.3,0.2,3.2,0.3,5.5,0.3c6.8,0,13.1-2.5,13.1-9.9
		c0-7-6-9.8-13.1-9.8h-5.4V48.7z"/>
	<path class="st1" d="M335.8,17.1l8,21.6c0.8,2.4,1.7,5.3,2.3,7.5h0.2c0.7-2.2,1.4-5,2.3-7.6l7.3-21.5h7l-10,26.1
		c-4.8,12.5-8,19-12.5,22.9c-3.2,2.9-6.5,4-8.2,4.3l-1.7-5.6c1.7-0.5,3.9-1.6,5.8-3.2c1.8-1.4,4.1-4,5.6-7.4
		c0.3-0.7,0.5-1.2,0.5-1.6c0-0.4-0.2-0.9-0.5-1.7l-13.5-33.7H335.8z"/>
</g>
</svg>
