<svg id="Capa_1" enable-background="new 0 0 512.205 512.205" height="512" viewBox="0 0 512.205 512.205" width="512" xmlns="http://www.w3.org/2000/svg"><g><path d="m172.683 168.523v149.986h83.42l12.56-125.017-12.56-70.369z" fill="#fff5f5"/><path d="m361.6 168.523-95.536-50.821-9.961 5.421v195.386h105.497z" fill="#ebebf0"/><g><g><path d="m310.295 106.714h29.985v52.329h-29.985z" fill="#a1073d"/></g></g><path d="m210.821 131.031 14.656 26.159 30.626-17.222 8.86-13.815-8.86-20.33z" fill="#fc445f"/><path d="m399.532 181.941-143.429-76.118v34.145l129.395 68.472z" fill="#e1105a"/><path d="m241.11 262.43h14.993l5.9-24.538-5.9-26.796h-14.993z" fill="#5a6d75"/><path d="m256.103 211.096h14.993v51.334h-14.993z" fill="#475a60"/><g><g><path d="m158.602 209.559v75.064h15.16l7.413-37.532-7.413-37.532z" fill="#c29578"/></g><path d="m173.762 209.559h14.825v75.064h-14.825z" fill="#a97450"/><g><path d="m173.762 0c-34.025 0-61.706 27.682-61.706 61.706v101.139c0 34.025 27.681 61.706 61.707 61.706l24.647-107.833z" fill="#19a995"/></g><path d="m173.762 0v224.552c34.025 0 61.706-27.681 61.706-61.706v-101.14c.001-34.024-27.68-61.706-61.706-61.706z" fill="#0d7579"/></g><path d="m255.654 246.438c-92.528 0-181.501 33.859-250.53 95.34l-5.021 4.473.003 165.749h255.997l32.837-147.913-32.837-117.644c-.15 0-.299-.005-.449-.005z" fill="#92e170"/><path d="m512.103 347.084-4.984-4.469c-69.06-61.922-158.189-96.063-251.016-96.173v265.558h255.996z" fill="#1fc979"/><g><g><path d="m63.453 289.393v77.92h15.16l7.412-38.96-7.412-38.96z" fill="#c29578"/></g><path d="m78.613 289.393h14.825v77.92h-14.825z" fill="#a97450"/><g><path d="m78.613 79.834c-34.025 0-61.706 27.682-61.706 61.706v101.139c0 34.025 27.681 61.706 61.707 61.706l24.647-107.833z" fill="#92e170"/></g><path d="m78.613 79.834v224.552c34.025 0 61.706-27.681 61.706-61.706v-101.14c.001-34.024-27.681-61.706-61.706-61.706z" fill="#1fc979"/></g><g><path d="m255.654 301.438c-115.124 0-198.711 61.876-255.551 123.241l.001 87.316h17.13l238.869-95.795 16.323-72.59-16.323-42.169c-.15 0-.299-.003-.449-.003z" fill="#1fc979"/><path d="m256.103 301.441v114.759l7.736-3.102 231.216 98.902h16.703l.002-86.341c-56.923-61.914-141.337-124.055-255.657-124.218z" fill="#19a995"/></g><g><path d="m54.307 464.245c-15.715 18.08-37.073 47.749-37.073 47.749l238.869.003 28.873-65.354-28.873-82.428c-74.531.04-145.945 35.774-201.796 100.03z" fill="#92e170"/><path d="m458.904 465.124c-54.177-66.39-127.729-100.911-202.676-100.911-.042 0-.083.002-.125.002v147.782l238.952.003c2.448 2.984-20.111-27.221-36.151-46.876z" fill="#1fc979"/></g><g><path d="m418.71 46.697c0 25.34 20.292 46.015 45.479 46.666l18.035-46.485-18.036-46.847c-25.186.65-45.478 21.326-45.478 46.666z" fill="#fef176"/><path d="m465.407 0c-.409 0-.812.021-1.218.031v93.331c.406.01.81.031 1.218.031 25.748 0 46.696-20.948 46.696-46.697 0-25.748-20.948-46.696-46.696-46.696z" fill="#fecb2e"/></g></g></svg>