<svg xmlns="http://www.w3.org/2000/svg" xmlns:xlink="http://www.w3.org/1999/xlink" viewBox="0 0 1440 325"><path d="M0,325V0h1440v325H0z" fill="#1b8241"/><defs><path id="A" d="M0 0h1440v325H0z"/></defs><clipPath id="B"><use xlink:href="#A"/></clipPath><g clip-path="url(#B)"><path d="M964.3 129.1c100.2-46.4 180.4 57.9 217.1-20.8 36.7-78.6 212 6.9 153.7 169.2-58.3 162.2-179.1-86-194.2 63.8-15 149.8-160.8 55-209.7-7.6s-67.1-158.2 33.1-204.6z" fill="#24934c"/><path d="M765-80c-5.1 23.8-15.7 48.6-31.4 67.3-15.2 18.1-37.5 33.6-60.5 38.4-26.6 5.6-54 1.8-80.1-4.2-30.5-7-72.4-3.6-102.5 15.7-28.8 18.5-47.8 43.5-70.1 69-32.4 37.1-73.7 69-125.5 65.2-41.1-3-75.9-28-99.5-60.7-14.9-20.7-25.8-44.1-33.9-68.2-30.6-91.4-16.1-121.7-16.1-121.7L765-80z" fill="#08632d"/><g fill="#36b562"><path d="M1339.3 162.6c-25.2 15.4-6.6 82.2-28.7 88.6-13.2 3.9-24.3-18.8-44.1-33.7-7.8-5.8-16.8-10.5-27.9-11.8-2.2-.3-4.4-.4-6.6-.4-6.5.1-13 1.2-19.1 3.3-26.7 9-46.9 33.5-50.8 38.3-1.8 2.2-4.3 5.2-7 8.8-3.8 5-7.2 10.3-10.2 15.7-5.5 10-9.9 21.7-10 33.8v.3c0 4.8.7 9.7 2.4 14.5 4.1 12.3 13.3 22 24.9 29.3 6.4 4 13.5 7.2 20.9 9.7 13.4 4.5 27.9 6.6 42 5.6 33.8-2.6 44.4-23.7 77.7-19 19.9 2.8 45.1 14.6 46.9 30.1 2.1 17.7-28.2 23.7-39.3 55.1-7 19.6-4.3 42.8 4.5 58.2 23.3 40.9 102 48.6 151.9 19.5 49.5-28.9 60.6-88.2 62.3-126.5.4-9.2.3-17.2 0-23.3-.2-4-.5-8-.9-12-3.9-30.7-15.6-59-31.3-83.9-39.9-63.1-106.5-103.9-142.2-103.9-6.2.1-11.3 1.3-15.4 3.7M1045 239.3c-7.8 10.2-5.9 22.9-5.4 26.8.6 4.1 4 24 20.2 30.2 15.3 5.8 33.5-3.8 41.4-18.2 7.2-13.1 7-32.2-5.2-43.6-15-14.2-40.4-9.3-51 4.8"/></g><path d="M1255.2-151.4C1357.5-109.8 1336 20 1418.5-6.8s139.4 159.8-19 227.8-59.3-189.6-179.1-98.5c-119.8 91.2-149.9-80.1-137.5-158.6 12.5-78.4 70-156.9 172.3-115.3z" fill="#08632d"/><path d="M16.8-108c16.9-1.9 59.2 2.2 94 22.8s52 65.2 50.5 96.9c-1.6 31.7 8.9 56.4 30.3 67.4 21.4 10.9 34.9 3.4 57.2.6s77.1 12.4 85.2 61-33.9 94.5-62.1 108.9-43.8 34.4-25.1 55.7c9.6 11 43.8 38.5 26.4 65-83.2 126.5-333.1-9.6-376.5-177C-142.6 42-74.6-97.3 16.8-108" fill="#24934c"/></g><path d="M35.8 121.2c102.3 41.6 80.8 171.4 163.3 144.6s139.5 159.8-18.9 227.8C21.6 561.6 120.8 303.9 1 395.1S-148.9 315-136.5 236.5-66.6 79.6 35.8 121.2z" fill="#36b562"/></svg>