<?xml version="1.0" encoding="utf-8"?>
<!-- Generator: Adobe Illustrator 23.0.2, SVG Export Plug-In . SVG Version: 6.00 Build 0)  -->
<svg version="1.1" id="Layer_1" xmlns="http://www.w3.org/2000/svg" xmlns:xlink="http://www.w3.org/1999/xlink" x="0px" y="0px"
	 viewBox="0 0 512 435.4" style="enable-background:new 0 0 512 435.4;" xml:space="preserve">
<style type="text/css">
	.st0{fill:#EA3942;}
	.st1{fill:#F3E8D7;}
	.st2{fill:#E5D6C1;}
	.st3{fill:#FC4E51;}
</style>
<path class="st0" d="M340.9,359.5c-31.2-0.8-51-15.8-62.4-29.5c-10.2-12.3-14.7-29.2-19.9-48.8c-7.2-27.2-16.2-61.1-44.4-92.3
	c-28-30.9-62.6-44.4-93.1-56.3C76,115.1,57.7,106.4,57.7,66.5c0-4.4,0-13.8,8.1-24.7C30,65.3,7.1,95.1,7.6,127.8
	c1.4,85.1,89.7,69.4,142.3,127.7c55.7,61.6,12,121.5,124.8,165.2c59.3,23,158.5-7.4,208.3-130.3
	C481.8,291.9,406.6,361.1,340.9,359.5z"/>
<path class="st1" d="M504.4,201.3c0,103-86.6,208.9-198.4,186.4c-118.9-23.9-72.4-99.1-128-160.6c-52.7-58.2-146.6-36-146.6-127.7
	c0-83.1,143.8-105.2,274.6-84.5C414.2,32,504.4,98.3,504.4,201.3z"/>
<path class="st2" d="M432.2,65c19.1,26.6,30.3,58.2,30.3,94.4c0,102.9-86.6,208.9-198.4,186.4c-16.9-3.4-30.4-7.8-41.4-13.1
	c11.1,24.5,31.5,44.6,83.3,55c111.8,22.5,198.4-83.5,198.4-186.4C504.4,143.6,476.1,97.5,432.2,65z"/>
<path class="st3" d="M336,353.9c-16.7,0.7-33.4-2.1-48.8-8.9c-10.4-4.6-20.2-11.2-26.9-20.4c-7.2-10-10.2-22.4-13.3-34.4
	c-6.6-25.5-14.7-51.2-29.8-72.8c-22.3-31.9-57.8-52.2-94.3-65.6c-12.9-4.7-26.2-8.9-37.4-16.8c-11.1-8-19.9-20.9-18.8-34.5
	c1.4-17.6,17.9-29.9,34-37c44.3-19.8,95.5-22.7,143.3-19.1c48.7,3.7,100.8,12.6,144.1,36.3c42.7,23.4,74.4,63.8,78.7,113.1
	c4.2,48.4-18.3,100.7-55.9,131.5C390,342.3,363.1,352.7,336,353.9z"/>
<path class="st0" d="M467,193.6c-3.8-43.5-29-80.2-64.4-104.3c12.1,18.2,19.9,39,21.9,61.8c4.2,48.4-18.3,100.7-55.9,131.5
	c-21,17.3-48,27.6-75,28.8c-14.4,0.6-28.8-1.4-42.4-6.3c2.2,6.9,5,13.6,9.2,19.5c6.7,9.2,16.5,15.8,26.9,20.4
	c15.4,6.9,32.1,9.7,48.8,8.9c27-1.2,54-11.5,75-28.8C448.7,294.2,471.2,242,467,193.6z"/>
<path class="st1" d="M240.3,111.6c0,17.3-14,31.3-31.3,31.3s-31.3-14-31.3-31.3s14-31.3,31.3-31.3S240.3,94.3,240.3,111.6z"/>
<path d="M450.8,70.1c-36-31.6-87-53.9-143.6-62.8c-50.2-7.9-102-9.5-146-4.3C112.6,8.7,74.6,22.2,51.4,42c-1.2,1.1-2.4,2.1-3.6,3.2
	C16,70-0.5,98.6,0,127.9c0.4,25.5,8.4,45.2,24.4,60c14,13,32.3,21.1,51.6,29.6c24,10.5,48.8,21.4,68.3,43.1
	c20,22.1,26.5,44.3,32.8,65.7c5.3,18.1,10.8,36.8,24.2,54.1c15,19.4,37.4,34.5,70.7,47.4c13,5,27.3,7.5,42.3,7.5
	c23.6,0,48.6-6.2,71.7-18.3c31.2-16.3,74.4-50.9,103.9-123.1c14.2-28.7,22.2-60.7,22.2-92.6C512,150.6,490.8,105.2,450.8,70.1z
	 M378.9,403.5c-34,17.8-71.9,21.6-101.4,10.1c-66.4-25.8-75.4-56.3-85.8-91.6c-6.5-22-13.8-47-36.1-71.7
	c-21.7-24-49.2-36.1-73.5-46.8c-36.9-16.2-66.1-29-66.8-75.9c-0.2-12.1,3.2-23.2,8.6-33.2c-0.1,1.6-0.2,3.2-0.2,4.9
	c0,27.5,8.1,48.1,24.8,63.2c14.6,13.2,33.8,20.7,54,28.5c24.7,9.6,50.3,19.6,69.7,41c19.4,21.5,25.7,45,31.7,67.8
	c5.5,20.6,10.6,40,24.7,56.9c15.7,18.9,39.8,31.1,75.8,38.3c10.5,2.1,20.9,3.1,31.3,3.1c29.9,0,58.9-8.6,84.9-25.3
	C405.9,387.3,391.4,397,378.9,403.5z M476.7,286.2c-0.3,0.4-0.5,0.8-0.7,1.3c-0.1,0.2-0.2,0.4-0.3,0.6
	c-11.9,23.6-28.3,44.7-48.3,61.1c-20.1,16.4-50.8,33.9-91,33.9c-9.2,0-18.8-0.9-28.9-2.9c-70.1-14.1-78.3-45-88.7-84.2
	c-6.2-23.4-13.2-49.8-35.1-74.1c-21.8-24.1-50.3-35.2-75.5-45C69.5,161.9,39,150,39,99.4c0-17.7,7.5-33.1,22.3-45.8
	c29.1-24.9,86.5-38.5,154.5-38.5c28.3,0,58.3,2.3,89,7.2c53.8,8.5,102.1,29.5,136,59.2c36.7,32.1,56,73.5,56,119.7
	C496.8,230.5,489.6,259.9,476.7,286.2z"/>
<path d="M467.6,209.6c-4.2-0.3-7.9,2.8-8.2,7c-3.1,37.2-21.7,74.6-48.9,98.9c-10-7.9-13.9-20.6-19.9-40.3
	c-5-16.3-11.2-36.7-23.4-61.5c-11.6-23.7-33.1-43.8-55.3-59.7c16.8-9.8,57.5-28.3,121.6-25.4c12.4,16.3,20.8,34.7,24.3,54.2
	c0.7,3.7,3.9,6.3,7.5,6.3c0.5,0,0.9,0,1.4-0.1c4.1-0.8,6.9-4.7,6.1-8.9c-4.2-23-14.3-44.5-29.3-63.3c-0.1-0.1-0.2-0.3-0.3-0.4
	c-13.5-16.8-30.8-31.3-51.3-42.5c-37.7-20.7-84.5-32.5-147.2-37.2c-59.2-4.5-107.3,2-147,19.7c-18.5,8.3-30.9,19.6-36,32.7
	c0,0.1-0.1,0.2-0.1,0.3c-1.3,3.3-2.1,6.8-2.4,10.3c-1.2,14.9,7.2,30.8,21.9,41.3c8.1,5.8,17.2,9.6,24.1,12.3
	c3.9,1.5,8.3-0.5,9.8-4.4c1.5-3.9-0.5-8.3-4.4-9.8c-6.5-2.5-14.1-5.7-20.7-10.5c-8.2-5.9-16.6-16.2-15.6-27.7c0-0.5,0.1-1,0.2-1.6
	c35.8-0.7,76.4,6.4,95.6,10.2c0,0.7-0.1,1.3-0.1,2c0,21.4,17.4,38.9,38.9,38.9c13.8,0,26-7.3,32.9-18.2
	c25.4,11.3,89.7,43.4,111.6,88.1c11.6,23.8,17.6,43.5,22.5,59.3c6,19.6,10.7,34.8,22.2,45.4c-18.4,12.6-40.6,20.2-62.5,21.1
	c-16.2,0.7-31.5-2.1-45.3-8.3c-10.7-4.8-18.7-10.8-23.8-17.9c-6.1-8.4-8.8-19-11.7-30.2l-0.4-1.7c-6.6-25.5-14.9-52.3-30.9-75.2
	c-17.3-24.8-44-45.3-79.4-60.9c-3.8-1.7-8.3,0-10,3.9c-1.7,3.8,0,8.3,3.9,10c32.8,14.5,57.4,33.2,73,55.7
	c14.6,20.9,22.4,46.2,28.6,70.3l0.4,1.6c3.1,12.1,6.3,24.6,14.1,35.3c6.7,9.3,16.8,17,30,22.9c14.4,6.4,30.1,9.7,46.7,9.7
	c1.8,0,3.7,0,5.6-0.1c28.7-1.2,56.9-12,79.3-30.3c0,0,0,0,0.1,0c0.1-0.1,0.1-0.1,0.2-0.1c33-27.1,55-69.4,58.6-113.1
	C474.9,213.7,471.8,210,467.6,209.6z M232.6,113.3c-0.6,4.4-0.8,7.1-4.4,12.1c-4.3,5.9-11.3,9.8-19.2,9.8c-13,0-23.5-10.5-23.7-23.4
	c0.5-8,3.4-12.5,3.4-12.5c4.1-6.9,11.7-11.4,20.3-11.4c13,0,23.7,10.6,23.7,23.7C232.7,112.2,232.7,112.7,232.6,113.3z M247.4,118
	c0.3-2.1,0.5-4.2,0.5-6.4c0-21.4-17.4-38.9-38.9-38.9c-15.4,0-28.8,9-35.1,22.1c-18.1-3.7-55.5-10.3-91.1-10.7
	c4.4-4.6,11.1-9.4,21-13.8c37.3-16.7,83-22.7,139.7-18.4c60.4,4.6,105.2,15.8,141,35.4c13.2,7.3,25,16,35.2,25.9
	c-68.4,0-108.7,22.8-121.8,31.6C277.9,132.1,258.8,123,247.4,118z"/>
</svg>
