<?xml version="1.0" encoding="utf-8"?>
<!-- Generator: Adobe Illustrator 23.0.2, SVG Export Plug-In . SVG Version: 6.00 Build 0)  -->
<svg version="1.1" id="Layer_1" xmlns="http://www.w3.org/2000/svg" xmlns:xlink="http://www.w3.org/1999/xlink" x="0px" y="0px"
	 viewBox="0 0 447 388.3" style="enable-background:new 0 0 447 388.3;" xml:space="preserve">
<style type="text/css">
	.st0{fill:#00EFD1;}
	.st1{fill:#00ACEA;}
	.st2{fill:#083863;}
</style>
<g>
	<path class="st0" d="M439.5,219.5v121c0,22.1-17.9,40-40,40h-351c-22.1,0-40-17.9-40-40v-121c0-22.1,17.9-40,40-40h351
		C421.6,179.5,439.5,197.4,439.5,219.5z M350.1,249.5c0-3.3-1.4-6.9-4.7-6.9h-43.2c-3.3,0-4.7,3.6-4.7,6.9c0,3.8,1.7,7.1,4.7,7.1
		H316v54.3c0,3.2,3.9,4.8,7.8,4.8c3.9,0,7.8-1.6,7.8-4.8v-54.3h13.8C348.4,256.6,350.1,253.3,350.1,249.5z M281.3,310.9v-63.6
		c0-3.3-3.9-4.7-7.8-4.7s-7.8,1.4-7.8,4.7v34l-16.2-30.9c-3.8-7.3-5.9-7.8-11.5-7.8c-3.9,0-7.8,1.5-7.8,4.8v63.5
		c0,3.2,3.9,4.8,7.8,4.8s7.8-1.6,7.8-4.8v-34l19,34.6c1.9,3.5,5.1,4.2,8.7,4.2C277.4,315.7,281.3,314.1,281.3,310.9z M213.4,249.3
		c0-3.2-1.4-6.7-4.7-6.7h-35.6c-3.4,0-6.8,1.6-6.8,4.8v63.5c0,3.2,3.4,4.8,6.8,4.8h35.6c3.3,0,4.7-3.5,4.7-6.7
		c0-3.7-1.7-6.9-4.7-6.9h-26.8v-17h15c3.3,0,4.7-3.2,4.7-5.9c0-3.2-1.7-6.1-4.7-6.1h-15v-16.9h26.8
		C211.7,256.2,213.4,253,213.4,249.3z M148.6,308.2c0-0.6-0.2-1.3-0.5-1.8l-12.2-22.1c7-2.7,12.1-9.1,12.1-20.3
		c0-16.3-10.9-21.4-24.6-21.4h-20.7c-1.3,0-2.5,0.4-3.4,1.3s-1.4,2.1-1.4,3.4v63.6c0,3.2,3.9,4.8,7.8,4.8c3.9,0,7.8-1.6,7.8-4.8
		v-24.1h6.6l13.7,26.6c0.9,1.9,2.9,3,5,2.9C143.4,316.3,148.6,312.1,148.6,308.2z"/>
	<path class="st1" d="M251.5,35.5c0,15.2-12.3,27.5-27.5,27.5s-27.5-12.3-27.5-27.5S208.8,8,224,8c7.3,0,14.3,2.9,19.5,8
		C248.6,21.2,251.5,28.2,251.5,35.5z"/>
	<path class="st0" d="M132.4,265.5c0,7-3.4,9.3-9,9.3h-9.9v-18.6h9.9C129,256.2,132.4,258.5,132.4,265.5z"/>
	<g>
		<path class="st2" d="M48.5,388.3h351c12.6,0,24.8-5,33.7-14c8.9-9,13.9-21.1,13.8-33.8v-121c0-26.5-21-48.3-47.5-48.3h-14.7
			L256,50.8c2.3-4.8,3.5-10,3.5-15.3C259.5,15.9,243.6,0,224,0c-19.6,0-35.5,15.9-35.5,35.5c0,5.3,1.2,10.5,3.5,15.2L63.2,171.3
			H48.5C22,171.3,0,193.1,0,219.5v121C0,367,22,388.3,48.5,388.3z M224,16c10.8,0,19.5,8.7,19.5,19.5c0,8.4-5.3,15.8-13.2,18.5
			c-7.9,2.7-16.6,0-21.7-6.6l0,0c-2.6-3.4-4-7.6-4-11.9C204.5,24.8,213.2,16.1,224,16z M202,63.3c12.9,10.3,31.1,10.2,44,0
			l115.4,108H86.6L202,63.3z M431,340.3c0,17.7-14.3,32-32,32H48c-17.7,0-32-14.3-32-32v-121c0-17.7,14.3-32,32-32h351
			c17.7,0,32,14.3,32,32V340.3z"/>
		<path class="st2" d="M105.5,316.2c4,0,8.5-1.7,8.5-5.3v-23.6h5.8l13.6,26.3c1,2,3.2,3.3,5.4,3.2c4.9,0,10.3-4.5,10.3-8.6
			c0-0.7-0.2-1.4-0.6-2l-11.9-21.6c7.7-3.2,11.9-10.4,11.9-20.5c0-14.5-8.4-21.8-25.1-21.8h-20.7c-3,0-5.7,2.1-5.7,5v63.6
			C97,314.6,101.5,316.2,105.5,316.2z M114,256.3h9.4c6,0,8.5,2.8,8.5,9s-2.5,9-8.5,9H114V256.3z"/>
		<path class="st2" d="M173.1,316.3h35.6c3.6,0,5.2-3.8,5.2-7.4c0-4.4-2.1-7.6-5.2-7.6H182v-16h14.9c3.6,0,5.2-3.3,5.2-6.4
			c0-3.3-1.8-6.6-5.2-6.6H182v-16h26.7c3.1,0,5.2-2.7,5.2-7.1c0-3.6-1.6-6.9-5.2-6.9h-35.6c-3.5,0-7.1,1.5-7.1,5.1v63.5
			C166,314.6,169.6,316.3,173.1,316.3z"/>
		<path class="st2" d="M238,316.2c4,0,8-1.7,8-5.3v-32.1l18.2,32.9c2.1,3.9,6,4.5,9.3,4.5c4,0,8.5-1.7,8.5-5.3v-63.6
			c0-3.8-4.7-5.2-8.5-5.2s-8.5,1.4-8.5,5.2v32l-15.2-29.1c-3.9-7.4-5.9-8.1-11.7-8.1c-4.1,0-8.1,1.6-8.1,5.3v63.5
			C230,314.6,234,316.2,238,316.2z"/>
		<path class="st2" d="M302.2,257.3H315v53.6c0,3.6,4.5,5.3,8.5,5.3s8.5-1.7,8.5-5.3v-53.6h13.4c3.1,0,5.2-3.1,5.2-7.6
			c0-3.7-1.6-7.4-5.2-7.4h-43.2c-3.6,0-5.2,3.7-5.2,7.4C297,254.2,299.1,257.3,302.2,257.3z"/>
	</g>
</g>
</svg>
