<?xml version="1.0" encoding="utf-8"?>
<!-- Generator: Adobe Illustrator 23.0.2, SVG Export Plug-In . SVG Version: 6.00 Build 0)  -->
<svg version="1.1" id="Capa_1" xmlns="http://www.w3.org/2000/svg" xmlns:xlink="http://www.w3.org/1999/xlink" x="0px" y="0px"
	 viewBox="0 0 512 502.5" style="enable-background:new 0 0 512 502.5;" xml:space="preserve">
<style type="text/css">
	.st0{fill:#FFF9E1;}
	.st1{fill:#FEE9AB;}
	.st2{fill:#F7E06F;}
	.st3{fill:#FCCA75;}
	.st4{fill:#DF7059;}
	.st5{fill:#231F20;}
</style>
<g>
	<g>
		<path class="st0" d="M327.7,396.1c1.3-2,2.6-4.1,3.6-6.2C330.1,392,328.9,394.1,327.7,396.1z"/>
		<path class="st0" d="M332.2,388.2c1.1-2.3,2.1-4.6,3.1-7C334.4,383.6,333.4,385.9,332.2,388.2z"/>
		<path class="st0" d="M279.2,431.9c0.9-0.2,1.7-0.5,2.5-0.7C280.9,431.4,280,431.7,279.2,431.9z"/>
		<path class="st0" d="M291,427.6c1.4-0.6,2.8-1.3,4.3-2C293.8,426.3,292.4,427,291,427.6z"/>
		<path class="st0" d="M296.6,424.8c1.6-0.9,3.2-1.8,4.8-2.8C299.9,423,298.2,423.9,296.6,424.8z"/>
		<path class="st0" d="M336.8,377.1c0.4-1.2,0.8-2.4,1.1-3.6C337.5,374.7,337.2,375.9,336.8,377.1z"/>
		<path class="st0" d="M326.6,397.7c-3.4,5.1-7.4,9.8-11.9,14C319.1,407.5,323.1,402.8,326.6,397.7z"/>
		<path class="st0" d="M314.5,411.9c-2.3,2.2-4.8,4.3-7.3,6.2c-1.7,1.3-3.4,2.4-5.1,3.6c3.1-1.9,6-4.1,8.8-6.4
			C312.1,414.2,313.3,413,314.5,411.9z"/>
	</g>
	<path class="st1" d="M8.5,8.5v341.3h162.1c0-47.1,38.2-85.3,85.3-85.3s85.3,38.2,85.3,85.3h162.1V8.5H8.5L8.5,8.5z"/>
	<g>
		<path class="st0" d="M285.2,430c1.1-0.4,2.3-0.9,3.4-1.3C287.5,429.1,286.3,429.6,285.2,430z"/>
		<path class="st0" d="M180.7,389.9c1.1,2.1,2.3,4.2,3.6,6.2C183.1,394.1,181.9,392,180.7,389.9z"/>
		<path class="st0" d="M176.7,381.2c0.9,2.4,1.9,4.7,3.1,7C178.6,385.9,177.6,383.6,176.7,381.2z"/>
		<path class="st0" d="M273.1,433.4c0.5-0.1,1-0.2,1.6-0.3C274.1,433.2,273.6,433.3,273.1,433.4z"/>
		<path class="st0" d="M210.6,422c1.6,1,3.2,1.9,4.8,2.8C213.8,423.9,212.1,423,210.6,422z"/>
		<path class="st0" d="M174.1,373.5c0.3,1.2,0.7,2.4,1.1,3.6C174.8,375.9,174.5,374.7,174.1,373.5z"/>
		<path class="st0" d="M216.8,425.6c1.4,0.7,2.8,1.4,4.3,2C219.6,427,218.2,426.3,216.8,425.6z"/>
		<path class="st0" d="M197.3,411.8c-4.5-4.2-8.4-8.9-11.9-14C188.9,402.8,192.9,407.5,197.3,411.8z"/>
		<path class="st0" d="M209.9,421.6c-1.8-1.1-3.5-2.3-5.1-3.6c-2.6-1.9-5-4-7.3-6.2c1.2,1.1,2.4,2.3,3.7,3.3
			C203.9,417.6,206.9,419.7,209.9,421.6z"/>
		<path class="st0" d="M266.9,434.4l0.7-0.1L266.9,434.4z"/>
		<path class="st0" d="M223.4,428.7c1.1,0.5,2.3,0.9,3.4,1.3C225.7,429.6,224.5,429.1,223.4,428.7z"/>
		<path class="st0" d="M230.3,431.2c0.9,0.3,1.7,0.5,2.5,0.7C232,431.7,231.1,431.4,230.3,431.2z"/>
		<path class="st0" d="M237.4,433.1c0.5,0.1,1.1,0.2,1.6,0.3C238.4,433.3,237.9,433.2,237.4,433.1z"/>
		<path class="st0" d="M244.4,434.3l0.7,0.1L244.4,434.3z"/>
	</g>
	<path class="st2" d="M256,264.5c-47.1-0.1-85.3,38-85.3,85.1c0,6.6,0.8,13.2,2.3,19.6l0,0c0.3,1.5,0.8,2.9,1.2,4.3
		c0.4,1.2,0.7,2.4,1.1,3.6c0.5,1.4,0.9,2.7,1.5,4.1c0.9,2.4,1.9,4.7,3.1,7c0.3,0.6,0.6,1.1,0.9,1.7c1.1,2.1,2.3,4.2,3.6,6.2
		c0.4,0.6,0.7,1.1,1.1,1.6c3.4,5.1,7.4,9.8,11.9,14l0.1,0.1c2.3,2.2,4.8,4.2,7.4,6.1c1.7,1.3,3.4,2.4,5.1,3.6
		c0.2,0.1,0.4,0.3,0.6,0.4c1.6,1,3.2,1.9,4.8,2.8c0.5,0.3,0.9,0.5,1.4,0.8c1.4,0.7,2.8,1.4,4.3,2c0.8,0.4,1.6,0.7,2.4,1
		c1.1,0.5,2.3,0.9,3.4,1.3c1.1,0.4,2.3,0.9,3.5,1.2c0.9,0.3,1.7,0.5,2.5,0.7c1.5,0.4,3,0.9,4.5,1.2c0.5,0.1,1.1,0.2,1.6,0.3
		c1.8,0.4,3.6,0.7,5.5,0.9l0.7,0.1c2.1,0.3,4.2,0.5,6.2,0.6l0,0c1.5,0.1,3.1,0.2,4.6,0.2c1.6,0,3.1-0.1,4.6-0.2l0,0
		c2.1-0.1,4.2-0.3,6.2-0.6l0.7-0.1c1.8-0.2,3.7-0.6,5.5-0.9c0.5-0.1,1.1-0.2,1.6-0.3c1.5-0.3,3-0.7,4.5-1.2c0.9-0.2,1.7-0.5,2.5-0.7
		c1.2-0.4,2.3-0.8,3.5-1.2c1.2-0.4,2.3-0.9,3.4-1.3c0.8-0.3,1.6-0.7,2.4-1c1.4-0.6,2.8-1.3,4.3-2c0.5-0.2,0.9-0.5,1.4-0.8
		c1.6-0.9,3.2-1.8,4.8-2.8c0.2-0.1,0.4-0.3,0.6-0.4c1.8-1.1,3.5-2.3,5.1-3.6c2.6-1.9,5-4,7.3-6.2l0.1-0.1c4.5-4.2,8.4-8.9,11.9-14
		c0.4-0.5,0.7-1.1,1.1-1.6c1.3-2,2.5-4.1,3.6-6.2c0.3-0.6,0.7-1.1,0.9-1.7c1.1-2.3,2.1-4.6,3.1-7c0.5-1.3,1-2.7,1.5-4.1
		c0.4-1.2,0.8-2.4,1.1-3.6c0.4-1.4,0.9-2.9,1.2-4.3l0,0c10.7-45.8-17.7-91.7-63.5-102.4C269.1,265.3,262.6,264.5,256,264.5z
		 M256,401.1c-28.3,0-51.2-22.9-51.2-51.2s22.9-51.2,51.2-51.2s51.2,22.9,51.2,51.2C307.2,378.1,284.3,401,256,401.1z"/>
	<circle class="st3" cx="256" cy="349.9" r="51.2"/>
	<path class="st4" d="M244.4,434.3c-1.8-0.3-3.7-0.6-5.5-0.9c-0.5-0.1-1.1-0.2-1.6-0.3c-1.5-0.3-3-0.7-4.5-1.2
		c-0.9-0.2-1.7-0.5-2.5-0.7c-1.2-0.4-2.3-0.8-3.5-1.2s-2.3-0.9-3.4-1.3c-0.9-0.3-1.6-0.7-2.4-1c-1.4-0.6-2.8-1.3-4.3-2
		c-0.5-0.2-0.9-0.5-1.4-0.8c-1.6-0.9-3.2-1.8-4.8-2.8c-0.2-0.1-0.4-0.3-0.6-0.4c-3.1-1.9-6-4.1-8.8-6.4c-1.3-1.1-2.5-2.2-3.7-3.3
		l-0.1-0.1c-4.5-4.2-8.4-8.9-11.9-14c-0.4-0.5-0.7-1.1-1.1-1.6c-1.3-2-2.6-4.1-3.6-6.2c-0.3-0.6-0.6-1.1-0.9-1.7
		c-1.1-2.3-2.1-4.6-3.1-7c-0.5-1.3-1-2.7-1.5-4.1c-0.4-1.2-0.8-2.4-1.1-3.6c-0.4-1.4-0.9-2.8-1.2-4.3l-49.4,58.9l55.7,13.2
		l22.8,52.5l49.4-58.9c-2.1-0.1-4.2-0.3-6.2-0.6L244.4,434.3z"/>
	<g>
		<path class="st0" d="M221,427.6c0.8,0.4,1.6,0.7,2.4,1C222.6,428.4,221.8,428,221,427.6z"/>
		<path class="st0" d="M226.8,430c1.2,0.4,2.3,0.9,3.5,1.2C229.2,430.8,228,430.4,226.8,430z"/>
		<path class="st0" d="M232.8,431.9c1.5,0.4,3,0.8,4.5,1.2C235.8,432.7,234.3,432.3,232.8,431.9z"/>
		<path class="st0" d="M238.9,433.4c1.8,0.4,3.6,0.7,5.5,0.9C242.6,434.1,240.8,433.8,238.9,433.4z"/>
		<path class="st0" d="M184.4,396.1c0.4,0.6,0.7,1.1,1.1,1.6C185.1,397.2,184.7,396.7,184.4,396.1z"/>
		<path class="st0" d="M209.9,421.6c0.2,0.1,0.4,0.3,0.6,0.4C210.4,421.9,210.2,421.8,209.9,421.6z"/>
		<path class="st0" d="M175.2,377.1c0.5,1.4,0.9,2.7,1.5,4.1C176.2,379.8,175.7,378.5,175.2,377.1z"/>
		<path class="st0" d="M245.1,434.4c2.1,0.3,4.1,0.5,6.2,0.6l0,0C249.3,434.9,247.2,434.7,245.1,434.4z"/>
		<path class="st0" d="M179.8,388.2c0.3,0.6,0.6,1.1,0.9,1.7C180.4,389.3,180.1,388.8,179.8,388.2z"/>
		<path class="st0" d="M197.5,411.9l-0.1-0.1L197.5,411.9z"/>
		<path class="st0" d="M173,369.2L173,369.2c0.3,1.5,0.8,2.9,1.2,4.3C173.7,372.1,173.3,370.6,173,369.2z"/>
		<path class="st0" d="M215.4,424.8c0.5,0.3,0.9,0.5,1.4,0.8C216.3,425.4,215.9,425.1,215.4,424.8z"/>
	</g>
	<path class="st4" d="M336.8,377.1c-0.5,1.4-0.9,2.7-1.5,4.1c-0.9,2.4-1.9,4.7-3.1,7c-0.3,0.6-0.6,1.1-0.9,1.7
		c-1.1,2.1-2.3,4.2-3.6,6.2c-0.4,0.6-0.7,1.1-1.1,1.6c-3.4,5.1-7.4,9.8-11.9,14l-0.1,0.1c-1.2,1.1-2.4,2.3-3.7,3.3
		c-2.8,2.3-5.7,4.5-8.8,6.4c-0.2,0.1-0.4,0.3-0.6,0.4c-1.6,1-3.2,1.9-4.8,2.8c-0.5,0.3-0.9,0.5-1.4,0.8c-1.4,0.7-2.8,1.4-4.3,2
		c-0.8,0.4-1.6,0.7-2.4,1c-1.1,0.5-2.3,0.9-3.4,1.3c-1.1,0.4-2.3,0.9-3.5,1.2c-0.9,0.3-1.7,0.5-2.5,0.7c-1.5,0.4-3,0.8-4.5,1.2
		c-0.5,0.1-1,0.2-1.6,0.3c-1.8,0.4-3.6,0.7-5.5,0.9l-0.7,0.1c-2.1,0.3-4.1,0.5-6.2,0.6l49.4,58.9l22.8-52.5l55.7-13.3l-49.4-58.9
		c-0.3,1.5-0.8,2.9-1.2,4.3C337.5,374.7,337.2,375.9,336.8,377.1z"/>
	<g>
		<path class="st0" d="M326.6,397.7c0.4-0.5,0.7-1.1,1.1-1.6C327.3,396.7,326.9,397.2,326.6,397.7z"/>
		<path class="st0" d="M301.4,422c0.2-0.1,0.4-0.3,0.6-0.4C301.8,421.8,301.6,421.9,301.4,422z"/>
		<path class="st0" d="M295.2,425.6c0.5-0.2,0.9-0.5,1.4-0.8C296.1,425.1,295.7,425.4,295.2,425.6z"/>
		<path class="st0" d="M335.3,381.2c0.5-1.3,1-2.7,1.5-4.1C336.3,378.5,335.8,379.8,335.3,381.2z"/>
		<path class="st0" d="M314.7,411.8l-0.1,0.1L314.7,411.8z"/>
		<path class="st0" d="M331.3,389.9c0.3-0.6,0.6-1.1,0.9-1.7C331.9,388.8,331.6,389.3,331.3,389.9z"/>
		<path class="st0" d="M288.6,428.7c0.8-0.3,1.6-0.7,2.4-1C290.2,428,289.4,428.4,288.6,428.7z"/>
		<path class="st0" d="M260.6,435L260.6,435c2.1-0.1,4.2-0.3,6.2-0.6C264.8,434.7,262.7,434.9,260.6,435z"/>
		<path class="st0" d="M274.6,433.1c1.5-0.3,3-0.7,4.5-1.2C277.7,432.3,276.2,432.7,274.6,433.1z"/>
		<path class="st0" d="M267.6,434.3c1.8-0.3,3.7-0.6,5.5-0.9C271.2,433.8,269.4,434.1,267.6,434.3z"/>
		<path class="st0" d="M337.9,373.5c0.4-1.4,0.9-2.8,1.2-4.3l0,0C338.7,370.6,338.3,372.1,337.9,373.5z"/>
		<path class="st0" d="M281.7,431.2c1.2-0.4,2.3-0.8,3.5-1.2C284,430.4,282.8,430.8,281.7,431.2z"/>
	</g>
	<g>
		<path class="st5" d="M503.5,0H8.5C3.8,0,0,3.8,0,8.5v341.3c0,4.7,3.8,8.5,8.5,8.5h154.1c0.3,2.8,0.7,5.6,1.2,8.4L117,422.6
			c-3,3.6-2.6,9,1,12c1,0.9,2.2,1.5,3.5,1.8l51.5,12.3l21.1,48.6c1.9,4.3,6.9,6.3,11.2,4.4c1.2-0.5,2.3-1.3,3.1-2.3l46.7-55.7
			c0.3,0,0.5,0,0.8,0s0.5,0,0.8,0l46.7,55.7c3,3.6,8.4,4.1,12,1.1c1-0.9,1.8-1.9,2.3-3.1l21.1-48.6l51.5-12.3
			c4.6-1.1,7.4-5.7,6.3-10.3c-0.3-1.3-0.9-2.5-1.8-3.5l-46.8-55.8c0.5-2.8,0.9-5.6,1.2-8.4h154.1c4.7,0,8.5-3.8,8.5-8.5V8.5
			C512,3.8,508.2,0,503.5,0z M179.2,349.9c0-42.4,34.3-76.8,76.8-76.8s76.8,34.3,76.8,76.8c0,5.7-0.6,11.5-1.9,17.1
			c0,0.1-0.1,0.3-0.2,0.4c-0.9,3.9-2.1,7.8-3.6,11.5c-0.1,0.3-0.3,0.6-0.4,0.9c-1.4,3.2-3,6.4-4.8,9.4c-0.3,0.5-0.5,1-0.9,1.5
			c-1.9,3.1-4.1,6.1-6.5,8.9c-0.6,0.8-1.4,1.4-2,2.2c-1.7,1.9-3.6,3.7-5.5,5.4c-1.6,1.4-3.2,2.9-5,4.2c-1.8,1.3-3.3,2.4-5.1,3.5
			l-0.1,0.1c-1.5,1-3.1,1.9-4.7,2.7c-0.3,0.2-0.6,0.4-0.9,0.5c-1.3,0.7-2.6,1.3-3.9,1.9c-0.7,0.3-1.4,0.6-2,0.9
			c-1,0.4-1.9,0.8-2.9,1.1c-1,0.4-2.2,0.8-3.3,1.1c-0.6,0.2-1.2,0.4-1.8,0.5c-1.5,0.4-3,0.9-4.6,1.2l-0.7,0.1
			c-3.9,0.8-7.9,1.3-11.9,1.6H260c-1.3,0.1-2.7,0.2-4.1,0.2c-1.4,0-2.7-0.1-4.1-0.2h-0.1c-4-0.2-7.9-0.7-11.9-1.6l-0.7-0.1
			c-1.5-0.3-3-0.7-4.5-1.2c-0.6-0.2-1.3-0.3-1.9-0.5c-1.1-0.3-2.1-0.7-3.2-1.1s-2-0.7-3.1-1.2c-0.6-0.3-1.2-0.5-1.9-0.9
			c-1.4-0.6-2.8-1.3-4.1-2l-0.7-0.4c-3.5-1.9-6.9-4-10.1-6.4c-1.8-1.3-3.4-2.8-5-4.2c-1.9-1.7-3.7-3.5-5.5-5.4
			c-0.7-0.7-1.4-1.4-2.1-2.2c-2.4-2.8-4.6-5.8-6.5-8.9c-0.3-0.5-0.5-0.9-0.9-1.4c-1.8-3-3.4-6.2-4.8-9.4c-0.1-0.3-0.3-0.6-0.4-0.9
			c-1.5-3.7-2.7-7.6-3.6-11.5c0-0.2-0.1-0.3-0.2-0.4C179.8,361.2,179.2,355.6,179.2,349.9z M235,441.3l-30.6,36.5L187,438
			c-1.1-2.5-3.2-4.3-5.8-4.9L138.9,423l30.6-36.5c0.2,0.4,0.4,0.7,0.5,1.1c1.1,2.6,2.3,5,3.6,7.4c0.5,1,1.1,2,1.7,3
			c1.2,2,2.4,3.9,3.7,5.7c0.9,1.3,1.9,2.6,2.9,3.8c1.1,1.5,2.3,2.9,3.6,4.3s2.7,2.9,4.1,4.4c1.1,1,2.1,2.1,3.2,3.1
			c0.9,0.9,1.7,1.7,2.7,2.6c1,0.8,1.9,1.4,2.8,2.1c0.4,0.3,0.8,0.7,1.2,1c0.8,0.6,1.6,1.1,2.4,1.6c1.2,0.9,2.4,1.8,3.7,2.6
			c2.4,1.6,4.9,3,7.5,4.3c1,0.5,2,0.9,3,1.4c2.3,1.1,4.6,2,6.9,2.9c0.7,0.2,1.3,0.5,2,0.8C228.2,439.6,231.5,440.5,235,441.3
			L235,441.3z M342.4,386.5l30.6,36.5l-42.2,10.1c-2.6,0.6-4.8,2.4-5.8,4.9l-17.3,39.9L277,441.4h0.1c3.4-0.8,6.7-1.7,9.9-2.9
			c0.6-0.2,1.3-0.5,1.9-0.7c2.4-0.9,4.7-1.9,7-3c0.9-0.4,1.9-0.9,2.8-1.3c2.6-1.3,5.1-2.8,7.6-4.4c1.2-0.8,2.3-1.6,3.5-2.4
			c0.9-0.6,1.7-1.1,2.6-1.7c0.5-0.3,0.9-0.7,1.3-1.1c0.9-0.7,1.8-1.3,2.7-2c0.9-0.7,1.8-1.7,2.7-2.5c1.1-1,2.2-2.1,3.3-3.1
			c1.4-1.4,2.8-2.9,4.1-4.3c1.2-1.4,2.4-2.8,3.6-4.3c1-1.3,1.9-2.6,2.9-3.8c1.3-1.9,2.6-3.8,3.7-5.7c0.6-1,1.2-2,1.7-3
			c1.3-2.4,2.5-4.9,3.6-7.4C342,387.2,342.3,386.9,342.4,386.5z M494.9,341.3H349.4c-4.6-51.6-50.2-89.7-101.8-85.1
			c-45.2,4.1-81,39.9-85.1,85.1H17.1V17.1h477.9L494.9,341.3L494.9,341.3z"/>
		<path class="st5" d="M51.2,51.2h25.6V34.1H42.7c-4.7,0-8.5,3.8-8.5,8.5v34.1h17.1V51.2z"/>
		<path class="st5" d="M460.8,76.8h17.1V42.7c0-4.7-3.8-8.5-8.5-8.5h-34.1v17.1h25.6L460.8,76.8L460.8,76.8z"/>
		<path class="st5" d="M477.9,315.7v-34.1h-17.1v25.6h-25.6v17.1h34.1C474,324.3,477.9,320.4,477.9,315.7z"/>
		<path class="st5" d="M42.7,324.3h34.1v-17.1H51.2v-25.6H34.1v34.1C34.1,320.4,38,324.3,42.7,324.3z"/>
		<rect x="153.6" y="93.9" class="st5" width="204.8" height="17.1"/>
		<rect x="102.4" y="145.1" class="st5" width="307.2" height="17.1"/>
		<path class="st5" d="M256,409.6c33,0,59.7-26.7,59.7-59.7S289,290.1,256,290.1s-59.7,26.7-59.7,59.7
			C196.3,382.8,223,409.6,256,409.6z M256,307.2c23.6,0,42.7,19.1,42.7,42.7s-19.1,42.7-42.7,42.7s-42.7-19.1-42.7-42.7
			C213.4,326.3,232.4,307.2,256,307.2z"/>
	</g>
</g>
</svg>
