<?xml version="1.0" encoding="utf-8"?>
<!-- Generator: Adobe Illustrator 23.0.2, SVG Export Plug-In . SVG Version: 6.00 Build 0)  -->
<svg version="1.1" id="Capa_1" xmlns="http://www.w3.org/2000/svg" xmlns:xlink="http://www.w3.org/1999/xlink" x="0px" y="0px"
	 viewBox="0 0 480 480" style="enable-background:new 0 0 480 480;" xml:space="preserve">
<style type="text/css">
	.st0{fill:#348FD9;}
	.st1{fill:#E0E0DE;}
	.st2{fill:#3086CD;}
	.st3{fill:#F35244;}
	.st4{fill:#E64C3F;}
	.st5{fill:#4DB7E5;}
	.st6{fill:#4AAFDB;}
	.st7{fill:#D9D9D7;}
	.st8{fill:#FFB531;}
	.st9{fill:#4D5E78;}
	.st10{fill:#3B495E;}
</style>
<g id="Filled_outline">
	<path class="st0" d="M32,8h208c13.3,0,24,10.7,24,24v208c0,13.3-10.7,24-24,24H32c-13.3,0-24-10.7-24-24V32C8,18.7,18.7,8,32,8z"/>
	<path class="st1" d="M56,40v192h48v-64h48c35.3,0,64-28.7,64-64s-28.7-64-64-64H56z M152,120h-48V88h48c8.8,0,16,7.2,16,16
		S160.8,120,152,120z"/>
	<path class="st2" d="M264,104.8V240c0,13.3-10.7,24-24,24H39.8C121.6,235.3,202.2,185.3,264,104.8z"/>
	<path class="st3" d="M472,339.3V400c0,13.3-10.7,24-24,24H128c-13.3,0-24-10.7-24-24v-60.7c0-15.1,12.2-27.3,27.3-27.3h313.4
		C459.8,312,472,324.2,472,339.3z"/>
	<path class="st4" d="M472,339.3V400c0,13.3-10.7,24-24,24H174.4c73.7-25.1,144.7-61.4,205.3-112h65C459.8,312,472,324.2,472,339.3z
		"/>
	<path class="st5" d="M440,312H136l24-72l5.3-16l5.2-15.6c3.3-9.8,12.4-16.4,22.8-16.4h189.4c0.5,0,0.9,0,1.4,0.1
		c9.8,0.6,18.3,7,21.4,16.4l5.2,15.6l5.3,16L440,312z"/>
	<path class="st6" d="M416,240H160l5.3-16h245.3L416,240z"/>
	<path class="st6" d="M440,312H211.3c62.8-27.5,122.6-66.4,172.8-119.9c9.8,0.6,18.3,7,21.4,16.4l5.2,15.6L440,312z"/>
	<path class="st1" d="M410.7,224H165.3l5.2-15.6c3.3-9.8,12.4-16.4,22.8-16.4h189.4c10.3,0,19.5,6.6,22.8,16.4L410.7,224z"/>
	<path class="st7" d="M405.5,208.4c-3.3-9.8-12.4-16.4-22.8-16.4H348c10.3,0,19.5,6.6,22.8,16.4L376,224h34.7L405.5,208.4z"/>
	<circle class="st8" cx="160" cy="368" r="24"/>
	<circle class="st8" cx="416" cy="368" r="24"/>
	<path class="st9" d="M128,424h64l0,0v40c0,4.4-3.6,8-8,8h-48c-4.4,0-8-3.6-8-8V424L128,424z"/>
	<path class="st9" d="M384,424h64l0,0v40c0,4.4-3.6,8-8,8h-48c-4.4,0-8-3.6-8-8V424L384,424z"/>
	<path class="st10" d="M128,424h64v16h-64V424z"/>
	<path class="st10" d="M384,424h64v16h-64V424z"/>
	<path d="M120,272H32c-17.7,0-32-14.3-32-32V32C0,14.3,14.3,0,32,0h208c17.7,0,32,14.3,32,32v136h-16V32c0-8.8-7.2-16-16-16H32
		c-8.8,0-16,7.2-16,16v208c0,8.8,7.2,16,16,16h88V272z"/>
	<path d="M104,240H56c-4.4,0-8-3.6-8-8V40c0-4.4,3.6-8,8-8h96c39.8,0,72,32.2,72,72s-32.2,72-72,72h-40v56
		C112,236.4,108.4,240,104,240z M64,224h32v-56c0-4.4,3.6-8,8-8h48c30.9,0,56-25.1,56-56s-25.1-56-56-56H64V224z M152,128h-48
		c-4.4,0-8-3.6-8-8V88c0-4.4,3.6-8,8-8h48c13.3,0,24,10.7,24,24S165.3,128,152,128z M112,112h40c4.4,0,8-3.6,8-8s-3.6-8-8-8h-40V112
		z"/>
	<path d="M469.7,314.3c-6.3-6.4-14.9-10.1-23.9-10.3l-32.7-98.1c-4.3-13.1-16.6-21.9-30.4-21.9H193.3c-13.8,0-26,8.8-30.4,21.9
		L130.2,304c-19.1,0.6-34.2,16.2-34.2,35.3V400c0,17.7,14.3,32,32,32h56v32h-48v-16h-16v16c0,8.8,7.2,16,16,16h48
		c8.8,0,16-7.2,16-16v-32h176v32c0,8.8,7.2,16,16,16h48c8.8,0,16-7.2,16-16v-33c14.1-3.7,24-16.4,24-31v-60.7
		C480,329.9,476.3,321,469.7,314.3L469.7,314.3z M193.3,200h189.4c6.9,0,13,4.4,15.2,10.9l1.7,5.1H176.4l1.7-5.1
		C180.3,204.4,186.4,200,193.3,200z M171.1,232h233.8l24,72H147.1L171.1,232z M440,464h-48v-32h48V464L440,464z M464,400
		c0,8.8-7.2,16-16,16H128c-8.8,0-16-7.2-16-16v-60.7c0-10.7,8.6-19.3,19.3-19.3h313.4c10.7,0,19.3,8.6,19.3,19.3V400z"/>
	<path d="M160,336c-17.7,0-32,14.3-32,32s14.3,32,32,32s32-14.3,32-32C192,350.3,177.7,336,160,336z M160,384c-8.8,0-16-7.2-16-16
		s7.2-16,16-16s16,7.2,16,16C176,376.8,168.8,384,160,384z"/>
	<path d="M416,336c-17.7,0-32,14.3-32,32s14.3,32,32,32s32-14.3,32-32C448,350.3,433.7,336,416,336z M416,384c-8.8,0-16-7.2-16-16
		s7.2-16,16-16s16,7.2,16,16C432,376.8,424.8,384,416,384z"/>
	<path d="M208,344h160v16H208V344z"/>
	<path d="M208,376h160v16H208V376z"/>
</g>
</svg>
