<?xml version="1.0" encoding="utf-8"?>
<!-- Generator: Adobe Illustrator 23.0.2, SVG Export Plug-In . SVG Version: 6.00 Build 0)  -->
<svg version="1.1" id="Capa_1" xmlns="http://www.w3.org/2000/svg" xmlns:xlink="http://www.w3.org/1999/xlink" x="0px" y="0px"
	 viewBox="0 0 512 455.3" style="enable-background:new 0 0 512 455.3;" xml:space="preserve">
<style type="text/css">
	.st0{opacity:0.1;fill:#2626BC;enable-background:new    ;}
	.st1{fill:url(#SVGID_1_);}
	.st2{fill:#FFFFFF;}
	.st3{fill:#2626BC;}
	.st4{fill:#01ECA5;}
	.st5{fill:#6583FE;}
</style>
<g>
	<path class="st0" d="M373.6,118.4C373.6,118.4,373.6,118.4,373.6,118.4l0-78.4c0-5.5-4.5-10-10-10H148.5c-5.5,0-10,4.5-10,10v407.8
		c0,3.7,3.9,6.1,7.3,4.5l14-7.1c1.4-0.7,3.1-0.7,4.6,0l19,9.7c1.4,0.7,3.1,0.7,4.6,0l19-9.7c1.4-0.7,3.1-0.7,4.5,0l19,9.7
		c1.4,0.7,3.1,0.7,4.5,0l19-9.7c1.4-0.7,3.1-0.7,4.6,0l19,9.7c1.4,0.7,3.1,0.7,4.5,0l19-9.7c1.4-0.7,3.1-0.7,4.5,0l19,9.7
		c1.4,0.7,3.1,0.7,4.5,0l19-9.7c1.4-0.7,3.1-0.7,4.5,0l14,7.1c3.3,1.7,7.3-0.7,7.3-4.5V225h0c29.4,0,53.3-23.9,53.3-53.3
		C426.8,142.3,403,118.4,373.6,118.4L373.6,118.4z"/>
	<g>
		
			<linearGradient id="SVGID_1_" gradientUnits="userSpaceOnUse" x1="-9.0128" y1="316.5759" x2="466.0182" y2="88.2869" gradientTransform="matrix(1 0 0 -1 0 441.2295)">
			<stop  offset="0" style="stop-color:#D2DEFF;stop-opacity:0"/>
			<stop  offset="1" style="stop-color:#B7C5FF"/>
		</linearGradient>
		<path class="st1" d="M471.5,105c-65.4-50.3-128.9-9.3-199.6-23.8C200.6,66.6,172.2,18,91,40.4C19,60.3-24.6,140,14.9,206.7
			c11.3,19,30.5,33.3,38.3,54.6c12.7,34.3-6.6,60.7-2.8,94.4C66,495.8,280,441.5,358.7,397.9C482.2,329.5,565.7,177.4,471.5,105z"/>
		<g>
			<g>
				<path class="st2" d="M373.5,15v407.8c0,3.7-3.9,6.2-7.3,4.5l-14-7.1c-1.4-0.7-3.1-0.7-4.5,0l-19,9.7c-1.4,0.7-3.1,0.7-4.5,0
					l-19-9.7c-1.4-0.7-3.1-0.7-4.5,0l-19,9.7c-1.4,0.7-3.1,0.7-4.5,0l-19-9.7c-1.4-0.7-3.1-0.7-4.6,0l-19,9.7
					c-1.4,0.7-3.1,0.7-4.5,0l-19-9.7c-1.4-0.7-3.1-0.7-4.5,0l-19,9.7c-1.4,0.7-3.1,0.7-4.6,0l-19-9.7c-1.4-0.7-3.1-0.7-4.6,0
					l-14,7.1c-3.3,1.7-7.3-0.7-7.3-4.5V15c0-5.5,4.5-10,10-10h215.1C369.1,5,373.6,9.5,373.5,15L373.5,15z"/>
				<path class="st3" d="M279.5,435.3c-1.6,0-3.1-0.4-4.5-1.1l-19-9.7l-19,9.7c-2.8,1.5-6.2,1.5-9.1,0l-19-9.7l-19,9.7
					c-2.8,1.5-6.2,1.5-9.1,0l-19-9.7l-14,7.1c-3.1,1.6-6.8,1.5-9.8-0.4c-3-1.8-4.8-5-4.8-8.5V15c0-8.3,6.7-15,15-15h49
					c2.8,0,5,2.2,5,5s-2.2,5-5,5h-49c-2.8,0-5,2.2-5,5v407.8l14-7.1c2.8-1.5,6.2-1.5,9.1,0l19,9.7l19-9.7c2.8-1.5,6.2-1.5,9.1,0
					l19,9.7l19-9.7c2.8-1.5,6.2-1.5,9.1,0l19,9.7l19-9.7c2.8-1.5,6.2-1.5,9.1,0l19,9.7l19-9.7c2.8-1.5,6.2-1.5,9.1,0l14,7.1V229.6
					c0-2.8,2.2-5,5-5s5,2.2,5,5v193.2c0,3.5-1.8,6.7-4.8,8.5c-3,1.8-6.6,2-9.8,0.4l-14-7.1l-19,9.7c-2.8,1.5-6.2,1.5-9.1,0l-19-9.7
					l-19,9.7C282.6,434.9,281.1,435.3,279.5,435.3L279.5,435.3z"/>
			</g>
			<g>
				<g>
					<g>
						<path class="st3" d="M261,189.6h-86.5c-2.8,0-5-2.2-5-5s2.2-5,5-5H261c2.8,0,5,2.2,5,5C266,187.3,263.8,189.6,261,189.6z"/>
					</g>
					<g>
						<path class="st3" d="M186,169.5h-11.5c-2.8,0-5-2.2-5-5s2.2-5,5-5H186c2.8,0,5,2.2,5,5S188.8,169.5,186,169.5z"/>
					</g>
				</g>
				<g>
					<g>
						<path class="st3" d="M281,235H174.5c-2.8,0-5-2.2-5-5s2.2-5,5-5H281c2.8,0,5,2.2,5,5C286,232.7,283.8,235,281,235z"/>
					</g>
					<g>
						<path class="st3" d="M186,214.9h-11.5c-2.8,0-5-2.2-5-5s2.2-5,5-5H186c2.8,0,5,2.2,5,5S188.8,214.9,186,214.9z"/>
					</g>
				</g>
				<g>
					<g>
						<path class="st3" d="M271,280.4h-96.5c-2.8,0-5-2.2-5-5s2.2-5,5-5H271c2.8,0,5,2.2,5,5S273.8,280.4,271,280.4z"/>
					</g>
					<g>
						<path class="st3" d="M186,260.3h-11.5c-2.8,0-5-2.2-5-5c0-2.8,2.2-5,5-5H186c2.8,0,5,2.2,5,5C191,258.1,188.8,260.3,186,260.3
							z"/>
					</g>
				</g>
				<g>
					<g>
						<path class="st3" d="M231,325.8h-56.5c-2.8,0-5-2.2-5-5s2.2-5,5-5H231c2.8,0,5,2.2,5,5S233.8,325.8,231,325.8z"/>
					</g>
					<g>
						<path class="st3" d="M276.8,325.8h-21.5c-2.8,0-5-2.2-5-5s2.2-5,5-5h21.5c2.8,0,5,2.2,5,5S279.5,325.8,276.8,325.8z"/>
					</g>
					<g>
						<path class="st3" d="M186,305.8h-11.5c-2.8,0-5-2.2-5-5s2.2-5,5-5H186c2.8,0,5,2.2,5,5S188.8,305.8,186,305.8z"/>
					</g>
				</g>
				<g>
					<g>
						<g>
							<path class="st3" d="M334.6,189.6h-16.5c-2.8,0-5-2.2-5-5s2.2-5,5-5h16.5c2.8,0,5,2.2,5,5
								C339.6,187.3,337.4,189.6,334.6,189.6z"/>
						</g>
					</g>
					<g>
						<g>
							<path class="st3" d="M334.6,235h-16.5c-2.8,0-5-2.2-5-5s2.2-5,5-5h16.5c2.8,0,5,2.2,5,5C339.6,232.7,337.4,235,334.6,235z"/>
						</g>
					</g>
					<g>
						<g>
							<path class="st3" d="M334.6,280.4h-16.5c-2.8,0-5-2.2-5-5s2.2-5,5-5h16.5c2.8,0,5,2.2,5,5S337.4,280.4,334.6,280.4z"/>
						</g>
					</g>
					<g>
						<g>
							<path class="st3" d="M334.6,325.8h-16.5c-2.8,0-5-2.2-5-5s2.2-5,5-5h16.5c2.8,0,5,2.2,5,5S337.4,325.8,334.6,325.8z"/>
						</g>
					</g>
				</g>
				<g>
					<path class="st3" d="M333,305.8c-2.8,0-5-2.2-5-5v-0.1c0-2.8,2.2-5,5-5s5,2.2,5,5v0.1C338,303.6,335.7,305.8,333,305.8z"/>
				</g>
				<g>
					<g>
						<path class="st3" d="M334.6,383.7h-24.1c-2.8,0-5-2.2-5-5s2.2-5,5-5h24.1c2.8,0,5,2.2,5,5S337.4,383.7,334.6,383.7
							L334.6,383.7z"/>
					</g>
				</g>
				<g>
					<g>
						<path class="st3" d="M208.6,383.7h-34.1c-2.8,0-5-2.2-5-5s2.2-5,5-5h34.1c2.8,0,5,2.2,5,5S211.4,383.7,208.6,383.7z"/>
					</g>
				</g>
				<g>
					<path class="st3" d="M333,260.4c-2.8,0-5-2.2-5-5v-0.1c0-2.8,2.2-5,5-5s5,2.2,5,5v0.1C338,258.2,335.7,260.4,333,260.4z"/>
				</g>
				<g>
					<path class="st3" d="M333,215c-2.8,0-5-2.2-5-5v-0.1c0-2.8,2.2-5,5-5s5,2.2,5,5v0.1C338,212.8,335.7,215,333,215z"/>
				</g>
				<g>
					<path class="st4" d="M333,169.6c-2.8,0-5-2.2-5-5v-0.1c0-2.8,2.2-5,5-5s5,2.2,5,5v0.1C338,167.3,335.7,169.6,333,169.6z"/>
				</g>
			</g>
			<g>
				<g>
					<circle class="st5" cx="373.6" cy="146.7" r="53.3"/>
					<path class="st3" d="M378.6,88.7V15c0-8.3-6.7-15-15-15H226.7c-2.8,0-5,2.2-5,5s2.2,5,5,5h136.9c2.8,0,5,2.2,5,5v73.7
						c-29.8,2.5-53.3,27.6-53.3,58c0,32.1,26.1,58.3,58.3,58.3s58.3-26.1,58.3-58.3C431.8,116.3,408.3,91.2,378.6,88.7z M373.6,195
						c-26.6,0-48.3-21.7-48.3-48.3s21.7-48.3,48.3-48.3s48.3,21.7,48.3,48.3S400.2,195,373.6,195z"/>
				</g>
				<path class="st3" d="M380.1,141.7h-1.5v-10.2h9.5c2.8,0,5-2.2,5-5s-2.2-5-5-5h-9.5V119c0-2.8-2.2-5-5-5s-5,2.2-5,5v2.5H367
					c-8.3,0-15.1,6.8-15.1,15.1s6.8,15.1,15.1,15.1h1.5v10.2h-9.5c-2.8,0-5,2.2-5,5s2.2,5,5,5h9.5v2.5c0,2.8,2.2,5,5,5s5-2.2,5-5
					v-2.5h1.5c8.3,0,15.1-6.8,15.1-15.1S388.4,141.7,380.1,141.7z M367,141.7c-2.8,0-5.1-2.3-5.1-5.1s2.3-5.1,5.1-5.1h1.5v10.2H367z
					 M380.1,161.9h-1.5v-10.2h1.5c2.8,0,5.1,2.3,5.1,5.1C385.2,159.6,382.9,161.9,380.1,161.9z"/>
			</g>
			<g>
				<path class="st3" d="M276.8,130.4h-41.5c-2.8,0-5-2.2-5-5s2.2-5,5-5h41.5c2.8,0,5,2.2,5,5S279.5,130.4,276.8,130.4z"/>
			</g>
			<g>
				<path class="st3" d="M304.3,93.4h-96.5c-2.8,0-5-2.2-5-5s2.2-5,5-5h96.5c2.8,0,5,2.2,5,5S307,93.4,304.3,93.4z"/>
			</g>
			<g>
				<path class="st3" d="M329.3,71.5H182.7c-2.8,0-5-2.2-5-5s2.2-5,5-5h146.5c2.8,0,5,2.2,5,5S332,71.5,329.3,71.5z"/>
			</g>
			<g>
				<path class="st3" d="M186,49.5h-11.5c-2.8,0-5-2.2-5-5s2.2-5,5-5H186c2.8,0,5,2.2,5,5S188.8,49.5,186,49.5z"/>
			</g>
		</g>
		<g>
			<path class="st5" d="M411.2,54c-3.7,0-7.4-1.4-10.3-4.2c-5.7-5.7-5.7-14.9,0-20.5s14.9-5.7,20.5,0c5.7,5.7,5.7,14.9,0,20.5
				C418.6,52.6,414.9,54,411.2,54L411.2,54z M411.2,35c-1.2,0-2.3,0.4-3.2,1.3c-1.8,1.8-1.8,4.6,0,6.4c1.8,1.8,4.6,1.8,6.4,0
				c1.8-1.8,1.8-4.6,0-6.4C413.5,35.5,412.3,35,411.2,35z"/>
			<path class="st5" d="M436.3,102.9c-3.7,0-7.4-1.4-10.3-4.2c-2.7-2.7-4.2-6.4-4.2-10.3s1.5-7.5,4.2-10.3c5.7-5.7,14.9-5.7,20.5,0
				c2.7,2.7,4.2,6.4,4.2,10.3c0,3.9-1.5,7.5-4.2,10.3C443.7,101.5,440,102.9,436.3,102.9L436.3,102.9z M436.3,83.9
				c-1.2,0-2.3,0.4-3.2,1.3c-0.9,0.8-1.3,2-1.3,3.2s0.5,2.3,1.3,3.2c1.8,1.8,4.6,1.8,6.4,0c0.9-0.8,1.3-2,1.3-3.2s-0.5-2.3-1.3-3.2
				C438.6,84.4,437.5,83.9,436.3,83.9z"/>
			<path class="st5" d="M105.4,208.4c-3.7,0-7.4-1.4-10.3-4.2c-5.7-5.7-5.7-14.9,0-20.5c5.7-5.7,14.9-5.7,20.5,0
				c5.7,5.7,5.7,14.9,0,20.5C112.8,207,109.1,208.4,105.4,208.4z M105.4,189.4c-1.2,0-2.3,0.4-3.2,1.3c-1.8,1.8-1.8,4.6,0,6.4
				c1.8,1.8,4.6,1.8,6.4,0c1.8-1.8,1.8-4.6,0-6.4C107.7,189.9,106.5,189.4,105.4,189.4z"/>
			<path class="st5" d="M98.9,253.4c-1.3,0-2.6-0.5-3.5-1.5l-6-6l-6,6c-2,2-5.1,2-7.1,0c-2-2-2-5.1,0-7.1l9.5-9.5c2-2,5.1-2,7.1,0
				l9.5,9.5c2,2,2,5.1,0,7.1C101.5,252.9,100.2,253.4,98.9,253.4z"/>
			<path class="st5" d="M426.8,398.2c-1.3,0-2.6-0.5-3.5-1.5l-6-6l-6,6c-2,2-5.1,2-7.1,0c-2-2-2-5.1,0-7.1l9.5-9.5c2-2,5.1-2,7.1,0
				l9.5,9.5c2,2,2,5.1,0,7.1C429.4,397.7,428.1,398.2,426.8,398.2z"/>
		</g>
	</g>
</g>
</svg>
