<svg xmlns="http://www.w3.org/2000/svg" viewBox="0 0 294.843 294.843"><path d="M212.92 0h-131c-3.313 0-6 2.687-6 6v282.843a6 6 0 0 0 5.999 6c1.33 0 2.65-.442 3.73-1.3l65.5-51.992a6 6 0 0 0 .969-8.43c-2.06-2.595-5.834-3.028-8.43-.97l-55.76 44.267V12h119v264.42l-26.77-21.247c-2.594-2.06-6.37-1.625-8.43.97a6 6 0 0 0 .971 8.43l36.5 28.97a6 6 0 0 0 9.73-4.7V6a6 6 0 0 0-6-6zm-110 35.755h89c3.313 0 6-2.687 6-6s-2.687-6-6-6h-89c-3.313 0-6 2.687-6 6s2.687 6 6 6zm0 23.655h89c3.313 0 6-2.687 6-6s-2.687-6-6-6h-89c-3.313 0-6 2.687-6 6s2.687 6 6 6zm62.5 11.653h-62.5c-3.313 0-6 2.687-6 6s2.687 6 6 6h62.5c3.313 0 6-2.687 6-6a6 6 0 0 0-6-6z"/></svg>