<svg xmlns="http://www.w3.org/2000/svg" viewBox="0 0 512 234.5" fill="#161616"><path d="M401.1 149.1c-23.5 0-42.7 19.1-42.7 42.7 0 23.5 19.1 42.7 42.7 42.7 23.5 0 42.7-19.1 42.7-42.7-.1-23.5-19.2-42.7-42.7-42.7zm0 68.3c-14.1 0-25.6-11.5-25.6-25.6s11.5-25.6 25.6-25.6 25.6 11.5 25.6 25.6-11.5 25.6-25.6 25.6zm-290.2-68.3c-23.5 0-42.7 19.1-42.7 42.7 0 23.5 19.1 42.7 42.7 42.7 23.5 0 42.7-19.1 42.7-42.7 0-23.5-19.1-42.7-42.7-42.7zm0 68.3c-14.1 0-25.6-11.5-25.6-25.6s11.5-25.6 25.6-25.6 25.6 11.5 25.6 25.6-11.5 25.6-25.6 25.6zm392.6-68.3V97.9c0-3.7-2.3-6.9-5.8-8.1l-48.2-16.1C431.4 43 406.4 13.8 351.4 4.1c-.1 0-.2 0-.3-.1C249.4-10.1 173 12.9 124 72.2 67.2 73.2 8.5 91.1 8.5 123.5v25.6c-4.7 0-8.5 3.8-8.5 8.5v34.1c0 4.7 3.8 8.5 8.5 8.5h34.1c4.7 0 8.5-3.8 8.5-8.5 0-32.9 26.8-59.7 59.7-59.7s59.7 26.8 59.7 59.7c0 4.7 3.8 8.5 8.5 8.5h153.6c4.7 0 8.5-3.8 8.5-8.5 0-32.9 26.8-59.7 59.7-59.7s59.7 26.8 59.7 59.7c0 4.7 3.8 8.5 8.5 8.5h34.1c4.7 0 8.5-3.8 8.5-8.5v-34.1c.4-4.6-3.4-8.5-8.1-8.5zM393 37c14.8 9.1 25.9 21.1 35.4 35.4h-35.8L393 37zM290.1 17.2c18.3-.2 37.7 1 58.4 3.8 10.3 1.8 19.3 4.4 27.4 7.6l-.4 43.7h-85.4V17.2zm-17 .7v54.4H147c31.6-32.6 73.3-50.6 126.1-54.4zm221.8 165.4h-17.5c-4.3-38.3-36.9-68.3-76.3-68.3s-72.1 29.9-76.4 68.3H187.3C183 145 150.4 115 111 115s-72.1 29.9-76.4 68.3H17.1v-17.1c4.7 0 8.5-3.8 8.5-8.5v-25.6h8.5c4.7 0 8.5-3.8 8.5-8.5s-3.8-8.5-8.5-8.5h-4.4c11.5-12.5 46.9-25.6 98.3-25.6h314.3l44.1 14.7v10.9h-8.5c-4.7 0-8.5 3.8-8.5 8.5s3.8 8.5 8.5 8.5h8.5v25.6c0 4.7 3.8 8.5 8.5 8.5v17.1z"/></svg>