<svg xmlns="http://www.w3.org/2000/svg" height="909.333" viewBox="-21 -47 682.667 682" width="909.333"><path d="M552.012-1.332H87.988C39.473-1.332 0 38.133 0 86.656V370.63c0 48.414 39.3 87.816 87.676 87.988V587.48l185.2-128.863H552.01c48.516 0 87.988-39.473 87.988-87.988V86.656c0-48.523-39.473-87.988-87.988-87.988zM602.5 370.63c0 27.836-22.648 50.488-50.488 50.488h-290.9l-135.926 94.586v-94.586H87.988c-27.84 0-50.488-22.652-50.488-50.488V86.656c0-27.844 22.648-50.488 50.488-50.488H552.01c27.84 0 50.488 22.645 50.488 50.488zM171.293 131.172h297.414v37.5H171.293zm0 0"/><path d="M171.293 211.172h297.414v37.5H171.293zm0 80h297.414v37.5H171.293zm0 0"/></svg>