<svg xmlns="http://www.w3.org/2000/svg" viewBox="0 0 512 512" fill="#161616"><path d="M502 401c-83.5 0-165.5 34.3-224.9 94-3.9 3.9-3.9 10.3 0 14.1 2 1.9 4.5 2.9 7.1 2.9s5.1-1 7.1-2.9C347 453.1 423.8 421 502 421c5.5 0 10-4.5 10-10 0-5.6-4.5-10-10-10zm-208.5-9.3a9.99 9.99 0 0 0-13.9-2.7c-42.8 28.9-78.9 65-107.3 107.4a9.99 9.99 0 0 0 2.7 13.9c1.7 1.1 3.6 1.7 5.6 1.7a10.12 10.12 0 0 0 8.3-4.4c27-40.2 61.3-74.6 101.9-102a9.99 9.99 0 0 0 2.7-13.9zM502 320.5c-44.7 0-89 7.6-131.5 22.7-5.2 1.8-7.9 7.6-6.1 12.8 1.4 4.1 5.3 6.7 9.4 6.7a9.6 9.6 0 0 0 3.3-.6c40.4-14.3 82.4-21.6 124.8-21.6 5.5 0 10-4.5 10-10s-4.4-10-9.9-10zM143.3 443.4c65.8-85.8 161-145.3 266.1-167.7h.1c30.2-6.4 61.2-9.8 92.6-9.8 5.5 0 10-4.5 10-10s-4.5-10-10-10c-28.4 0-56.8 2.6-84.6 7.7V232c36.1-30.6 56-70.7 56-113.4 0-44.1-21.2-85.5-59.7-116.5-3.7-2.9-8.9-2.9-12.5 0-38.5 31-59.7 72.3-59.7 116.5 0 42.7 19.8 82.8 56 113.4v25.7c-19 4.3-37.7 9.8-56.1 16.5v-58.6a9.73 9.73 0 0 0-2.9-7l-56-56.3c-1.9-1.9-4.4-2.9-7.1-2.9H161c-2.7 0-5.2 1.1-7.1 2.9l-56 56.3c-1.8 1.8-2.9 4.3-2.9 7.1v38.2c-7-1.3-14-2.4-21-3.4v-35.6c27.3-23.5 42.3-54.2 42.3-86.8 0-34.1-16.4-66.1-46.1-90-3.7-2.9-8.9-2.9-12.5 0-29.7 23.8-46 55.8-46 89.9 0 32.7 15 63.3 42.3 86.8v33.4a461.22 461.22 0 0 0-44-2.1c-5.5 0-10 4.5-10 10s4.5 10 10 10c80 0 158.2 21.2 227.1 61.3-16.5 11.2-32.3 23.5-47.2 36.7C134 335.6 72 320.6 10 320.6c-5.5 0-10 4.5-10 10s4.5 10 10 10c56.4 0 112.9 13.1 164.2 38-15.2 14.7-29.4 30.4-42.5 47.1-39-16.3-79.8-24.6-121.7-24.6-5.5 0-10 4.5-10 10s4.5 10 10 10c37.5 0 74.2 7.1 109.2 21.1-6.9 9.6-13.5 19.5-19.7 29.6l-15.2 25c-2.9 4.7-1.4 10.9 3.3 13.7 1.6 1 3.4 1.5 5.2 1.5 3.4 0 6.7-1.7 8.5-4.8l15.2-25c7.9-13 16.5-25.5 25.7-37.6.4-.3.8-.8 1.1-1.2zm218.1-324.7c0-35.5 16.3-69.2 46-95.6 29.7 26.4 46 60.1 46 95.6 0 31.3-12.6 61.2-36 85.9V128c0-5.5-4.5-10-10-10s-10 4.5-10 10v76.6c-23.3-24.7-36-54.6-36-85.9zM31.7 128c0-25.5 11.4-49.7 32.3-69 20.9 19.2 32.3 43.5 32.3 69 0 21.1-7.8 41.3-22.3 58.5V120c0-5.5-4.5-10-10-10s-10 4.5-10 10v66.5c-14.5-17.2-22.3-37.4-22.3-58.5zm275.6 77.7h-86.1L185 169.3h86.1l36.2 36.4zM161 173.5l32 32.1h-64l32-32.1zm-46 52.2h92v63.6l-14-6.2v-33.6c0-5.5-4.5-10-10-10h-44c-5.5 0-10 4.5-10 10v11.9c-4.6-1.2-9.3-2.4-14-3.4v-32.3zm58 49.5a482.91 482.91 0 0 0-24-8.1v-7.6h24v15.7zm54 23.8v-73.4h94.3V282c-17.1 7.1-33.9 15.2-50.1 24.3-5.2 2.9-10.3 5.9-15.4 9-9.4-5.8-19-11.2-28.8-16.3zm180.4-199c2.6 0 5.2-1.1 7.1-2.9 1.9-1.9 2.9-4.4 2.9-7.1 0-2.6-1.1-5.2-2.9-7.1-1.9-1.9-4.4-2.9-7.1-2.9s-5.2 1.1-7.1 2.9c-1.9 1.9-2.9 4.4-2.9 7.1 0 2.6 1.1 5.2 2.9 7.1 1.9 1.8 4.5 2.9 7.1 2.9zm-86.8 265.3c-1.9 1.9-2.9 4.4-2.9 7.1 0 2.6 1.1 5.2 2.9 7.1 1.9 1.9 4.4 2.9 7.1 2.9 2.6 0 5.2-1.1 7.1-2.9 1.9-1.9 2.9-4.4 2.9-7.1 0-2.6-1.1-5.2-2.9-7.1-1.9-1.9-4.4-2.9-7.1-2.9-2.7-.1-5.2 1-7.1 2.9z"/></svg>