<svg xmlns="http://www.w3.org/2000/svg" viewBox="0 0 511.92 511.92"><path d="M505.77 46.55a16.89 16.89 0 0 0-17.109-2.697l-432.18 174.44a8.54 8.54 0 0 0-4.715 11.115 8.54 8.54 0 0 0 11.115 4.715l412.86-166.588-204.8 241.545c-3.047 3.596-2.602 8.98.994 12.028s8.98 2.602 12.028-.994L491.86 74.9l-27.785 139.47-27.99 187.025c-.384 2.617-1.96 4.91-4.267 6.204-2.212 1.235-4.877 1.358-7.194.333l-116.37-45.756-55.842-23.38c-4.345-1.823-9.346.22-11.17 4.565a8.19 8.19 0 0 0-.358 1.801h-.205l-27.725 107.06-39.782-138.965L380.535 158.8c2.65-1.74 4.117-4.807 3.808-7.963s-2.342-5.88-5.28-7.074-6.295-.66-8.718 1.384L161.92 300.324 11.682 239.507c-4.36-1.73-9.298.384-11.057 4.732s.32 9.3 4.657 11.09l151.04 61.116L196.6 457.056c2.097 7.263 8.756 12.254 16.316 12.228h.196a16.77 16.77 0 0 0 11.093-4.463c.298-.18.583-.38.853-.597l82.483-84.343 110.592 43.853c7.107 3.02 15.214 2.565 21.94-1.23 6.93-3.844 11.682-10.69 12.86-18.526l27.913-186.675 30.72-154.12a17.16 17.16 0 0 0-5.794-16.632zM236.877 427.786l18.014-69.436 28.21 11.844 7.27 2.884-53.495 54.708z"/></svg>