<svg xmlns="http://www.w3.org/2000/svg" viewBox="0 0 512 512"><path d="M422.5 173.8c27.1 0 49.1-22 49.1-49.1V81.2c0-.2 0-.5-.1-.7v-.3c0-.2-.1-.5-.2-.7v-.2l-.3-.9v-.1c-.1-.3-.2-.5-.4-.7 0 0 0-.1-.1-.1L430.2 11c-4.1-6.7-11.7-11-19.7-11h-309c-8 0-15.6 4.3-19.7 11.1L41.4 77.6s0 .1-.1.1c-.1.2-.3.5-.4.7v.1l-.3.9v.2c-.1.2-.1.5-.2.7v.3c0 .2 0 .5-.1.7v43.5c0 27.1 22 49.1 49.1 49.1a49.15 49.15 0 0 0 19.2-3.9v100.1H56.8c-9.3 0-16.8 7.6-16.8 16.8v31c0 9.3 7.6 16.8 16.8 16.8h1.3v112.6h-1.3c-9.3 0-16.8 7.6-16.8 16.8v31c0 9.3 7.6 16.8 16.8 16.8h398c9.3 0 16.8-7.6 16.8-16.8v-31c0-9.3-7.6-16.8-16.8-16.8h-1V334.8h1c9.3 0 16.8-7.6 16.8-16.8v-31c0-9.3-7.6-16.8-16.8-16.8h-51.5V169.9a49.15 49.15 0 0 0 19.2 3.9zm-105.8 96.3c-4.1 0-7.5 3.4-7.5 7.5s3.4 7.5 7.5 7.5h101.6L274.1 403.3c-10.6 8.7-26 8.7-36.6 0L93.4 285.1h195.3c4.1 0 7.5-3.4 7.5-7.5s-3.4-7.5-7.5-7.5H153.5V169.9a49.15 49.15 0 0 0 19.2 3.9c17.5 0 32.9-9.2 41.6-23.1 8.7 13.9 24.1 23.1 41.6 23.1s32.9-9.2 41.6-23.1c8.7 13.9 24.1 23.1 41.6 23.1a49.15 49.15 0 0 0 19.2-3.9V270h-41.6v.1zM138.6 89h68.3v35.7c0 18.8-15.3 34.1-34.1 34.1s-34.1-15.3-34.1-34.1V89h-.1zm76.3-74l-7.2 59h-65.9l21.5-59h51.6zm67.1 0l7.2 59h-66.3l7.2-59H282zm66.7 0l21.5 59h-65.9l-7.2-59h51.6zm-58.6 109.7c0 18.8-15.3 34.1-34.1 34.1s-34.1-15.3-34.1-34.1V89h68.3v35.7h-.1zm49.2 34.1c-18.8 0-34.1-15.3-34.1-34.1V89h68.3v35.7c-.1 18.8-15.4 34.1-34.2 34.1zm83.2 0c-18.8 0-34.1-15.3-34.1-34.1V89h68.3v35.7c0 18.8-15.4 34.1-34.2 34.1zm-5.1-139.9L450.8 74h-64.7l-21.5-59h45.8c2.9 0 5.6 1.5 7 3.9zm-322.8 0c1.5-2.4 4.1-3.9 6.9-3.9h45.8l-21.5 59H61.2l33.4-55.1zM55.3 124.7V89h68.3v35.7c0 18.8-15.3 34.1-34.1 34.1s-34.2-15.3-34.2-34.1zm68.4 35.2c2.8-2.7 5.3-5.8 7.4-9.2 2.1 3.3 4.6 6.4 7.4 9.2v110.2h-14.8V159.9zM55 317.9v-31a1.79 1.79 0 0 1 1.8-1.8h12.9l42.3 34.7H56.9c-1.1 0-1.9-.9-1.9-1.9zm383.8 129.4h-65.4c-4.1 0-7.5 3.4-7.5 7.5s3.4 7.5 7.5 7.5h81.4a1.79 1.79 0 0 1 1.8 1.8v31a1.79 1.79 0 0 1-1.8 1.8h-398a1.79 1.79 0 0 1-1.8-1.8v-31a1.79 1.79 0 0 1 1.8-1.8h288.6c4.1 0 7.5-3.4 7.5-7.5s-3.4-7.5-7.5-7.5H73.2V334.8h57.1l97.7 80.1c8.1 6.6 17.9 9.9 27.8 9.9s19.7-3.3 27.8-9.9l97.7-80.1h57.4v112.5h.1zm17.9-160.4v31a1.79 1.79 0 0 1-1.8 1.8h-55.2L442 285h12.9c.9.1 1.8.9 1.8 1.9zm-68.4-16.8h-14.8V159.9c2.8-2.7 5.3-5.8 7.4-9.2 2.1 3.3 4.6 6.4 7.4 9.2v110.2z" fill="#161616"/></svg>