<svg xmlns="http://www.w3.org/2000/svg" viewBox="0 0 512 512"><path d="M437.02 330.98c-27.883-27.882-61.07-48.523-97.28-61.018C378.52 243.25 404 198.548 404 148 404 66.393 337.607 0 256 0S108 66.393 108 148c0 50.548 25.48 95.25 64.262 121.962-36.2 12.495-69.398 33.136-97.28 61.018C26.63 379.333 0 443.62 0 512h40c0-119.103 96.897-216 216-216s216 96.897 216 216h40c0-68.38-26.63-132.667-74.98-181.02zM256 256c-59.55 0-108-48.448-108-108S196.45 40 256 40s108 48.448 108 108-48.45 108-108 108z"/></svg>