<svg xmlns="http://www.w3.org/2000/svg" viewBox="0 0 511 511"><path d="M462.1 121.8H383V99.1a7.6 7.6 0 0 0-7.6-7.6h-6.5V81c0-35.3-28.7-64-64-64H204.1c-35.3 0-64 28.7-64 64v10.6h-6.6a7.6 7.6 0 0 0-7.6 7.6v22.7H97.1a7.6 7.6 0 0 0 0 15.2h365c18.1 0 32.8 14.7 32.8 32.8v66.5c0 15.6-11.1 29.1-26.4 32.1L286 302.3h-63.1l-182.3-34c-15.3-3-26.5-16.5-26.5-32.1v-66.5c0-18.1 14.7-32.8 32.8-32.8h15.2a7.6 7.6 0 1 0 0-15.2H46.9c-26.4.1-47.9 21.6-47.9 48v66.5c0 15.9 7.8 30.2 20.2 39v172.7c0 26.4 21.5 47.9 47.9 47.9h296.8a7.6 7.6 0 1 0 0-15.2H67c-18.1 0-32.8-14.7-32.8-32.8V282.4c1.1.3 2.3.6 3.5.8l177 32.8v79.4a7.5 7.5 0 0 0 5.3 7.2l32.3 10.1c.7.2 1.5.3 2.3.3s1.5-.1 2.3-.3l32.3-10.1a7.5 7.5 0 0 0 5.3-7.2V316l177-32.8c1.1-.2 2.3-.5 3.4-.8v165.5c0 18.1-14.7 32.8-32.8 32.8h-42.8a7.6 7.6 0 0 0 0 15.2H442c26.4 0 47.9-21.5 47.9-47.9V275.2c12.3-8.8 20.2-23.1 20.2-39v-66.5c-.1-26.4-21.6-47.9-48-47.9zM155.2 81c0-27 21.9-48.9 48.9-48.9h100.8c27 0 48.9 21.9 48.9 48.9v10.6h-17.1V81c0-17.5-14.2-31.7-31.8-31.7h-16.8a7.6 7.6 0 1 0 0 15.2h16.8c9.2 0 16.6 7.5 16.6 16.6v10.6H315a7.6 7.6 0 0 0-7.6 7.6V122H201.6V99.1a7.6 7.6 0 0 0-7.6-7.6h-6.5V81c0-9.2 7.5-16.6 16.6-16.6H253a7.6 7.6 0 1 0 0-15.2h-48.9c-17.5 0-31.8 14.2-31.8 31.7v10.6h-17.1V81zm-14.1 40.8v-15.1h45.4v15.1h-45.4zm181.4 0v-15.1h45.4v15.1h-45.4zm-92.7 195.4h49.4v29.2h-49.4v-29.2zm49.4 72.6l-24.7 7.7-24.7-7.7v-28.2h49.4v28.2z" fill="#161616"/></svg>