<svg xmlns="http://www.w3.org/2000/svg" viewBox="0 0 512.019 512.019"><path d="M447.28 304.8l-.365-5c-5.865-76.354-41.417-124.22-72.78-166.438-29.042-39.094-54.125-72.854-54.125-122.667 0-4-2.24-7.656-5.792-9.5-3.563-1.844-7.844-1.542-11.083.813C256.03 35.716 216.728 92.53 203 146.737c-9.53 37.74-10.792 80.167-10.97 108.188-43.5-9.292-53.354-74.365-53.458-75.073-.5-3.375-2.552-6.313-5.552-7.917-3.03-1.583-6.594-1.698-9.667-.177-2.28 1.104-56 28.396-59.115 137.375-.22 3.625-.23 7.25-.23 10.885 0 105.865 86.135 192 192 192s192-86.135 192-192c0-5.312-.364-10.27-.73-15.218zM256.01 490.685c-35.292 0-64-30.583-64-68.177 0-1.28-.01-2.573.083-4.156.427-15.854 3.438-26.677 6.74-33.875 6.188 13.292 17.26 25.5 35.22 25.5 5.896 0 10.667-4.77 10.667-10.667 0-15.188.313-32.708 4.094-48.52 3.365-14.03 11.406-28.938 21.594-40.896 4.53 15.52 13.365 28.083 22 40.344 12.344 17.542 25.104 35.677 27.344 66.604.135 1.833.27 3.677.27 5.656-.002 37.595-28.7 68.178-64.002 68.178zm67.412-13.937c11.072-15.1 17.922-33.763 17.922-54.24 0-2.5-.156-4.844-.47-9.208-2.53-34.823-17.667-56.344-31.03-75.333-11.385-16.167-21.208-30.135-21.208-49.948 0-4.052-2.292-7.75-5.917-9.552a10.62 10.62 0 0 0-11.177 1.042c-20.458 15.458-37.52 41.48-43.48 66.323-3.042 12.74-4.104 26.52-4.48 37.854-7.396-7.958-9.688-22.708-9.708-22.906-.48-3.427-2.583-6.417-5.656-8-3.052-1.583-6.708-1.625-9.78-.042-2.688 1.375-26.302 14.917-27.656 64.73-.094 1.688-.104 3.375-.104 5.052 0 20.477 6.85 39.14 17.922 54.24-60.664-26.195-103.255-86.563-103.255-156.73 0-3.198-.01-6.385.208-9.938 1.833-63.938 22.292-95.646 35.646-109.635 9.312 33.333 33.708 76.906 81.48 76.906 5.896 0 10.667-4.77 10.667-10.667 0-35.698.802-76.948 10.344-114.72 10.833-42.792 40.5-89 76.333-120.28 5.948 45.688 30.833 79.188 57 114.385 31.094 41.854 63.24 85.135 68.625 155.22l.365 5.104c.333 4.438.677 8.865.677 13.625-.003 70.166-42.594 130.534-103.258 156.73z"/></svg>