<svg xmlns="http://www.w3.org/2000/svg" height="665.333" viewBox="-49 0 499 499.312" width="665.333"><path d="M400.156 323.313v-208h-256v-16h16v-48h-12.902l6.055-18.168L120.156 0 87.004 33.152l6.055 18.16H80.156v48h16v304H59.2L34.95 451.84C15.37 454.426.156 471.04.156 491.313v8h240v-8c0-20.273-15.215-36.887-34.793-39.473L181.1 403.313h-36.945v-80zm-16-192v176h-240v-176zm-240-48h-48v-16h48zM105.3 37.48l14.848-14.855 14.848 14.848-4.617 13.84h-20.46zM222.8 483.312H17.523c3.305-9.312 12.2-16 22.633-16h160c10.434 0 19.328 6.688 22.633 16zm-35.578-32h-134.1l16-32h102.1zm-75.055-48v-304h16v304zm89.44-128h125.117L346.9 174.4l-48.812 19.523L264.156 160l-33.93 33.922L181.4 174.4zm32.488-62.6l30.07-30.078 30.07 30.078 31.184-12.48-5.414 27.1h-23.84v16h20.64l-3.2 16h-98.883l-3.2-16h68.64v-16h-71.84l-5.418-27.1zm0 0"/></svg>