<svg xmlns="http://www.w3.org/2000/svg" viewBox="0 0 512 512"><path d="M506.555 208.064L263.86 30.367a13.3 13.3 0 0 0-15.716 0L5.445 208.064c-5.928 4.34-7.216 12.665-2.875 18.593a13.31 13.31 0 0 0 18.593 2.875L256 57.588 490.837 229.53c2.368 1.735 5.12 2.57 7.848 2.57 4.096 0 8.138-1.885 10.744-5.445 4.342-5.927 3.054-14.25-2.874-18.592zm-64.31 24.48c-7.346 0-13.303 5.956-13.303 13.303v211.75H322.52V342c0-36.68-29.842-66.52-66.52-66.52s-66.52 29.842-66.52 66.52v115.587H83.058v-211.75c0-7.347-5.957-13.303-13.303-13.303s-13.303 5.956-13.303 13.303V470.9c0 7.347 5.957 13.303 13.303 13.303h133.03c6.996 0 12.72-5.405 13.25-12.267.032-.3.052-.65.052-1.036V342c0-22 17.905-39.914 39.914-39.914s39.914 17.906 39.914 39.914v128.9c0 .383.02.717.052 1.024.524 6.867 6.25 12.28 13.25 12.28h133.03c7.347 0 13.303-5.956 13.303-13.303V245.847c-.001-7.348-5.957-13.304-13.304-13.304z"/></svg>