<svg xmlns="http://www.w3.org/2000/svg" xmlns:xlink="http://www.w3.org/1999/xlink" viewBox="0 0 442 442"><path d="M171 336H70a10 10 0 1 0 0 20h101a10 10 0 1 0 0-20z"/><use xlink:href="#B"/><path d="M322 86H70a10 10 0 1 0 0 20h252c5.522 0 10-4.477 10-10s-4.478-10-10-10z"/><use xlink:href="#B" y="-200"/><use xlink:href="#B" y="-150"/><use xlink:href="#B" y="-100"/><use xlink:href="#B" y="-50"/><path d="M171 286H70a10 10 0 1 0 0 20h101a10 10 0 1 0 0-20zm0-150H70a10 10 0 0 0-10 10v101a10 10 0 0 0 10 10h101a10 10 0 0 0 10-10V146a10 10 0 0 0-10-10zm-10 101H80v-81h81v81zM422 76h-30V46c0-11.028-8.972-20-20-20H20C8.972 26 0 34.972 0 46v320c0 27.57 22.43 50 50 50h342c27.57 0 50-22.43 50-50V96c0-11.028-8.972-20-20-20zm0 290c0 16.542-13.458 30-30 30H50c-16.542 0-30-13.458-30-30V46h352v305c0 13.785 11.215 25 25 25 5.522 0 10-4.477 10-10s-4.478-10-10-10c-2.757 0-5-2.243-5-5V96h30v270z"/><defs ><path id="B" d="M322 336H221a10 10 0 1 0 0 20h101c5.522 0 10-4.477 10-10s-4.478-10-10-10z"/></defs></svg>