<svg xmlns="http://www.w3.org/2000/svg" viewBox="0 0 191.255 191.255"><path d="M162.93 66.612a6 6 0 1 0-6.35 10.183 22.06 22.06 0 0 1 10.45 18.833 22.06 22.06 0 0 1-10.45 18.833l-98.417 61.365c-6.943 4.33-15.36 4.542-22.512.573s-11.425-11.225-11.425-19.406V34.262c0-8.18 4.27-15.436 11.425-19.406s15.57-3.756 22.512.573l57.292 35.723c2.813 1.752 6.513.895 8.267-1.917a6 6 0 0 0-1.917-8.266L64.512 5.247c-10.696-6.67-23.66-7-34.685-.883s-17.6 17.293-17.6 29.898v122.73c0 12.605 6.58 23.782 17.602 29.898 5.25 2.913 10.94 4.364 16.616 4.364 6.24 0 12.467-1.754 18.068-5.247l98.417-61.365a33.99 33.99 0 0 0 16.101-29.015 33.99 33.99 0 0 0-16.101-29.015z"/></svg>