<svg id="SvgjsSvg1006" width="288" height="288" xmlns="http://www.w3.org/2000/svg" version="1.1" xmlns:xlink="http://www.w3.org/1999/xlink" xmlns:svgjs="http://svgjs.com/svgjs"><defs id="SvgjsDefs1007"></defs><g id="SvgjsG1008" transform="matrix(1,0,0,1,0,0)"><svg xmlns="http://www.w3.org/2000/svg" enable-background="new 0 0 512.001 512.001" viewBox="0 0 512.001 512.001" width="288" height="288"><path d="M503.45 324.28H8.55c-4.71 0-8.533 3.814-8.533 8.533 0 98.801 80.379 179.188 179.188 179.188h153.59c98.801 0 179.188-80.387 179.188-179.188C511.983 328.094 508.169 324.28 503.45 324.28zM332.795 494.935h-153.59c-86.531 0-157.447-68.143-161.901-153.59h477.391C490.242 426.792 419.326 494.935 332.795 494.935zM435.223 119.545c0-.623-.009-1.246-.068-2.193-1.314-14.147-11.041-25.769-23.883-30.129l9.659-9.659c16.75-16.408 18.431-42.655 3.771-61.188-15.7-19.079-43.995-21.793-63.066-6.101-1.084.896-2.133 1.843-3.183 2.893l-10.495 10.649c-4.403-12.774-16.05-22.433-30.402-23.764-18.9-1.032-34.899 13.473-35.914 32.262-.034.623-.043 1.246-.043 1.86v13.081c-5.017-2.91-10.828-4.582-17.031-4.591-.614 0-1.246.017-2.193.068-18.243 1.698-32.279 17.373-31.972 35.547v11.605c-5.12-2.961-10.956-4.548-17.031-4.557-.614 0-1.237.017-2.184.068-18.252 1.698-32.288 17.373-31.981 35.548v126.541c0 4.719 3.823 8.533 8.533 8.533h145.057c18.823 0 34.131-15.308 34.122-34.114 0-6.212-1.664-12.04-4.582-17.065h11.528c18.328.503 34.003-13.738 35.718-32.314.367-6.946-1.374-13.516-4.667-19.096 7.662-.853 14.753-4.241 20.282-9.753C431.647 137.242 435.214 128.675 435.223 119.545zM413.148 131.593c-3.225 3.208-7.5 4.975-12.065 4.975-.009 0-.017 0-.026 0h-25.598c-4.719 0-8.533 3.823-8.533 8.533s3.814 8.533 8.533 8.533l.939.026c9.403.503 16.639 8.558 16.161 17.62-.87 9.403-8.848 16.682-18.55 16.485h-41.213c-4.719 0-8.533 3.823-8.533 8.533s3.814 8.533 8.533 8.533c9.412 0 17.066 7.654 17.066 17.066s-7.654 17.066-17.066 17.066H196.271V120.799c-.162-9.446 7.091-17.526 16.161-18.38l.93-.026c9.395.008 17.031 7.654 17.04 17.04v.06c0 4.71 3.814 8.533 8.524 8.533.009 0 .009 0 .009 0 4.71 0 8.524-3.814 8.533-8.524v-.008V78.135c-.162-9.446 7.091-17.526 16.161-18.38l.922-.026c9.403.017 17.04 7.662 17.049 17.057v.051c0 4.71 3.814 8.533 8.524 8.533.009 0 .009 0 .009 0 4.71 0 8.524-3.814 8.533-8.524v-.009V34.174l.026-.947c.495-9.395 8.362-16.63 17.612-16.161 9.42.879 16.664 8.959 16.485 18.567v7.082c0 3.456 2.091 6.579 5.299 7.893 3.183 1.314 6.886.563 9.309-1.911l23.149-23.491c.631-.623 1.28-1.212 1.954-1.766 11.809-9.71 29.31-8.021 38.935 3.652 9.113 11.536 8.063 27.987-2.5 38.338l-22.441 22.441c-2.44 2.44-3.174 6.109-1.852 9.301 1.314 3.183 4.437 5.265 7.884 5.265h7.082c.179 0 .307 0 .452 0 9.318 0 17.236 7.185 18.072 16.161l.026.939C418.148 124.093 416.374 128.376 413.148 131.593z" fill="#ffffff" class="color000 svgShape"></path><rect width="337.877" height="17.065" x="87.075" y="170.67" transform="rotate(-45.001 256.012 179.207)" fill="#ffffff" class="color000 svgShape"></rect><rect width="17.066" height="42.664" x="315.713" y="68.348" fill="#ffffff" class="color000 svgShape"></rect><rect width="17.066" height="51.197" x="264.516" y="111.012" fill="#ffffff" class="color000 svgShape"></rect><rect width="17.066" height="59.729" x="213.319" y="153.59" fill="#ffffff" class="color000 svgShape"></rect><rect width="42.664" height="17.065" x="324.245" y="102.479" fill="#ffffff" class="color000 svgShape"></rect><rect width="51.197" height="17.065" x="273.049" y="153.59" fill="#ffffff" class="color000 svgShape"></rect><rect width="59.729" height="17.066" x="221.852" y="204.787" fill="#ffffff" class="color000 svgShape"></rect><path d="M159.281,39.473c-0.008-0.017-0.026-0.034-0.034-0.051c-12.04-18.03-36.512-22.928-54.533-10.888
			c-0.563,0.367-1.118,0.759-1.749,1.229l-3.072,2.338l-2.952-2.125C81.326,15.411,56.777,16,41.913,31.427
			c-7.278,7.543-11.186,17.475-10.99,27.962c0.196,10.487,4.454,20.265,11.989,27.535c2.193,2.116,4.633,3.976,7.261,5.529
			l7.185,5.615v4.369c0,23.525,19.139,42.664,42.664,42.664s42.664-19.148,42.655-42.672v-4.369l7.552-5.896
			C166.568,79.765,170.536,56.616,159.281,39.473z M139.818,78.647l-10.922,8.533c-2.065,1.613-3.277,4.096-3.277,6.724v8.533
			c0,14.113-11.485,25.598-25.598,25.598c-14.113,0-25.598-11.485-25.598-25.598v-8.533c0-2.628-1.203-5.111-3.277-6.724
			l-10.922-8.533c-0.324-0.256-0.674-0.486-1.032-0.691c-1.604-0.913-3.089-2.022-4.42-3.311c-4.266-4.113-6.673-9.642-6.784-15.564
			c-0.111-5.922,2.099-11.536,6.212-15.803c4.343-4.505,10.154-6.775,15.973-6.775c5.546,0,11.101,2.056,15.402,6.212
			c0.29,0.273,0.597,0.538,0.93,0.776l8.533,6.144c3.038,2.193,7.159,2.142,10.146-0.128l8.994-6.766
			c4.949-3.311,10.879-4.471,16.716-3.319c5.819,1.16,10.845,4.514,14.147,9.446C151.372,58.544,149.119,71.582,139.818,78.647z" fill="#ffffff" class="color000 svgShape"></path><rect width="17.066" height="17.065" x="187.721" y="8.533" fill="#ffffff" class="color000 svgShape"></rect><rect width="17.065" height="17.065" x="238.918" y="281.582" fill="#ffffff" class="color000 svgShape"></rect><path d="M460.787,51.24v17.066c9.412,0,17.066,7.654,17.066,17.065s-7.654,17.066-17.066,17.066v17.065
			c18.823,0,34.131-15.308,34.131-34.131C494.918,66.548,479.61,51.24,460.787,51.24z" fill="#ffffff" class="color000 svgShape"></path><rect width="17.065" height="17.066" x="17.066" y="128.077" fill="#ffffff" class="color000 svgShape"></rect><rect width="17.065" height="17.066" x=".017" y="93.946" fill="#ffffff" class="color000 svgShape"></rect><path d="M332.795 273.083c-18.823 0-34.131 15.308-34.131 34.131h17.066c0-9.412 7.654-17.066 17.065-17.066 9.412 0 17.066 7.654 17.066 17.066h17.065C366.926 288.391 351.618 273.083 332.795 273.083zM102.411 196.288h-1.075C97.53 181.586 84.159 170.69 68.28 170.69s-29.259 10.896-33.056 25.598h-1.075c-18.823 0-34.131 15.308-34.131 34.131 0 18.823 15.308 34.131 34.131 34.131h68.262c18.823 0 34.131-15.308 34.131-34.131C136.542 211.596 121.234 196.288 102.411 196.288zM102.411 247.493H34.148c-9.412 0-17.066-7.654-17.066-17.065 0-9.412 7.654-17.066 17.066-17.066h8.533c4.71 0 8.533-3.823 8.533-8.533 0-9.412 7.654-17.065 17.066-17.065s17.066 7.654 17.066 17.065c0 4.71 3.823 8.533 8.533 8.533h8.533c9.412 0 17.066 7.654 17.066 17.066C119.476 239.84 111.822 247.493 102.411 247.493z" fill="#ffffff" class="color000 svgShape"></path><path d="M85.345 247.485H51.214c-4.71 0-8.533 3.823-8.533 8.533v34.131c0 4.719 3.823 8.533 8.533 8.533h34.131c4.71 0 8.533-3.814 8.533-8.533v-34.131C93.878 251.308 90.055 247.485 85.345 247.485zM76.812 281.616H59.747v-17.065h17.066V281.616zM452.254 221.887c-14.113 0-25.598 11.485-25.598 25.598s11.485 25.598 25.598 25.598c14.113 0 25.598-11.485 25.598-25.598S466.367 221.887 452.254 221.887zM452.254 256.026c-4.71 0-8.533-3.831-8.533-8.533 0-4.702 3.823-8.533 8.533-8.533s8.533 3.823 8.533 8.533C460.787 252.204 456.964 256.026 452.254 256.026z" fill="#ffffff" class="color000 svgShape"></path><path d="M452.254,187.756c-32.928,0-59.729,26.793-59.729,59.729s26.801,59.729,59.729,59.729
			c32.928,0,59.729-26.793,59.729-59.729S485.182,187.756,452.254,187.756z M452.254,290.157c-23.525,0-42.664-19.147-42.664-42.664
			c0-23.525,19.139-42.664,42.664-42.664c23.525,0,42.664,19.139,42.664,42.664C494.918,271.018,475.779,290.157,452.254,290.157z" fill="#ffffff" class="color000 svgShape"></path></svg></g></svg>