<?xml version="1.0" encoding="utf-8"?>
<!-- Generator: Adobe Illustrator 24.0.0, SVG Export Plug-In . SVG Version: 6.00 Build 0)  -->
<svg version="1.1" id="Layer_1" xmlns="http://www.w3.org/2000/svg" xmlns:xlink="http://www.w3.org/1999/xlink" x="0px" y="0px"
	 viewBox="0 0 989.6 289.4" style="enable-background:new 0 0 989.6 289.4;" xml:space="preserve">
<style type="text/css">
	.st0{fill:#FFFFFF;}
	.st1{fill:#B1B0B0;}
	.st2{fill:#F9D1BD;}
	.st3{fill:#0BF3F2;}
	.st4{fill:#EB5A10;}
	.st5{fill:#565455;}
	.st6{fill:#575455;}
	.st7{fill:#EB5B10;}
</style>
<path class="st0" d="M890,51.3v13.9h9.7v11.1H890v28.3c0,2.1,0.4,3.6,1.2,4.5s2.3,1.4,4.6,1.4c1.7,0,3.2-0.1,4.5-0.4v11.5
	c-3,0.9-6,1.4-9.2,1.4c-10.6,0-16-5.4-16.2-16.1V76.3h-8.3V65.2h8.3V51.3H890z"/>
<path class="st0" d="M938.8,106.2c0-1.8-0.9-3.3-2.7-4.4s-4.8-2-8.8-2.9c-13.5-2.8-20.2-8.6-20.2-17.2c0-5,2.1-9.2,6.3-12.6
	S923,64,929.8,64c7.2,0,12.9,1.7,17.3,5.1c4.3,3.4,6.5,7.8,6.5,13.2h-15.1c0-2.2-0.7-4-2.1-5.4c-1.4-1.4-3.6-2.1-6.5-2.1
	c-2.5,0-4.5,0.6-5.9,1.7c-1.4,1.2-2.1,2.6-2.1,4.4c0,1.7,0.8,3,2.4,4.1c1.6,1,4.3,1.9,8,2.7c3.8,0.8,6.9,1.6,9.5,2.5
	c8,2.9,12,8,12,15.2c0,5.2-2.2,9.3-6.7,12.5c-4.4,3.2-10.2,4.8-17.2,4.8c-4.7,0-9-0.8-12.6-2.5c-3.7-1.7-6.6-4-8.7-7
	c-2.1-2.9-3.1-6.1-3.1-9.6h14.3c0.1,2.7,1.1,4.7,3,6.2c1.8,1.4,4.3,2.1,7.4,2.1c2.9,0,5.1-0.5,6.6-1.6
	C938,109.4,938.8,108,938.8,106.2z"/>
<g>
	<path class="st0" d="M385.7,120.9c-10.8,0-19.4-3.2-25.6-9.6s-9.4-15.2-9.4-26.3v-7.3c0-6.6,1.4-12.6,4.2-18
		c2.8-5.4,6.7-9.6,11.8-12.6c5.1-3.1,10.7-4.6,16.9-4.6c10.2,0,18.2,3.1,23.9,9.2c5.7,6.1,8.6,14.8,8.7,25.9v9.6h-49.7
		c0.3,6.4,2.2,11.3,5.7,14.8c3.5,3.4,8.3,5.1,14.4,5.1c5.7,0,10.9-1.6,15.6-4.9l2.5-1.9l8.6,10.2c-5,3.9-9.5,6.7-13.5,8.1
		S391,120.9,385.7,120.9z M383.6,56.3c-4.9,0-8.8,1.7-11.8,5s-4.8,7.9-5.2,13.6h33.9v-2.4c0-5.2-1.4-9.2-4.3-12
		C393.3,57.7,389.1,56.3,383.6,56.3z"/>
	<path class="st0" d="M456.4,93.2h-29.5V81h29.5V93.2z"/>
	<path class="st0" d="M485.3,92.9v26.9h-15.7V43.5h29.7c5.7,0,10.8,1,15.1,3.1s7.7,5.1,10,8.9c2.3,3.9,3.5,8.2,3.5,13.2
		c0,7.5-2.6,13.4-7.7,17.7c-5.1,4.3-12.2,6.5-21.2,6.5C499,92.9,485.3,92.9,485.3,92.9z M485.3,80.2h14c4.2,0,7.3-1,9.5-2.9
		c2.2-2,3.3-4.7,3.3-8.4c0-3.7-1.1-6.8-3.3-9.1c-2.2-2.3-5.2-3.5-9.1-3.6h-14.4V80.2L485.3,80.2z"/>
	<path class="st0" d="M570,119.8c-0.7-1.4-1.2-3.1-1.5-5.1c-3.7,4.1-8.4,6.1-14.3,6.1c-5.6,0-10.2-1.6-13.8-4.8
		c-3.6-3.2-5.5-7.3-5.5-12.1c0-6,2.2-10.6,6.7-13.8c4.5-3.2,10.9-4.8,19.3-4.9h7v-3.3c0-2.6-0.7-4.7-2-6.3s-3.5-2.4-6.4-2.4
		c-2.5,0-4.5,0.6-6,1.8c-1.4,1.2-2.2,2.9-2.2,5h-15.1c0-3.3,1-6.3,3-9.1c2-2.8,4.9-5,8.6-6.6c3.7-1.6,7.9-2.4,12.5-2.4
		c7,0,12.5,1.8,16.6,5.3c4.1,3.5,6.2,8.4,6.2,14.8v24.6c0,5.4,0.8,9.4,2.3,12.2v0.9L570,119.8L570,119.8z M557.5,109.2
		c2.2,0,4.3-0.5,6.2-1.5s3.3-2.3,4.2-4V94h-5.7c-7.6,0-11.6,2.6-12.1,7.9l-0.1,0.9c0,1.9,0.7,3.4,2,4.7
		C553.4,108.6,555.2,109.2,557.5,109.2z"/>
	<path class="st0" d="M615.8,98.3l10.5-35.2h16.2l-22.8,65.5l-1.3,3c-3.4,7.4-9,11.1-16.8,11.1c-2.2,0-4.4-0.3-6.7-1v-11.5l2.3,0.1
		c2.9,0,5-0.4,6.4-1.3c1.4-0.9,2.5-2.3,3.3-4.3l1.8-4.7l-19.8-56.8h16.3L615.8,98.3z"/>
	<path class="st0" d="M662.7,63.1l0.5,6.3c4-4.9,9.4-7.4,16.3-7.4c7.3,0,12.3,2.9,15,8.6c4-5.8,9.7-8.6,17-8.6
		c6.1,0,10.7,1.8,13.7,5.4c3,3.6,4.5,9,4.5,16.2v36.2h-15.2V83.6c0-3.2-0.6-5.6-1.9-7c-1.3-1.5-3.5-2.2-6.6-2.2
		c-4.5,0-7.7,2.2-9.4,6.5l0.1,38.9h-15.2V83.7c0-3.3-0.6-5.7-1.9-7.1c-1.3-1.5-3.5-2.2-6.6-2.2c-4.3,0-7.4,1.8-9.3,5.3v40.1h-15.2
		V63.1H662.7z"/>
	<path class="st0" d="M767.4,120.8c-8.3,0-15.1-2.5-20.3-7.6s-7.8-11.9-7.8-20.4v-1.5c0-5.7,1.1-10.8,3.3-15.3s5.3-7.9,9.3-10.4
		c4-2.4,8.6-3.6,13.8-3.6c7.8,0,13.9,2.4,18.3,7.3c4.5,4.9,6.7,11.8,6.7,20.8v6.2h-36.1c0.5,3.7,2,6.7,4.4,8.9
		c2.5,2.2,5.6,3.4,9.3,3.4c5.8,0,10.4-2.1,13.7-6.3l7.4,8.3c-2.3,3.2-5.3,5.7-9.2,7.5C776.4,119.9,772.1,120.8,767.4,120.8z
		 M765.7,74.3c-3,0-5.4,1-7.3,3.1c-1.9,2-3.1,4.9-3.6,8.7h21v-1.2c-0.1-3.4-1-6-2.7-7.8C771.4,75.2,768.9,74.3,765.7,74.3z"/>
	<path class="st0" d="M813.2,63.1l0.5,6.5c4-5.1,9.5-7.6,16.3-7.6c6,0,10.5,1.8,13.4,5.3c2.9,3.5,4.4,8.8,4.5,15.8v36.6h-15.1V83.5
		c0-3.2-0.7-5.5-2.1-7c-1.4-1.4-3.7-2.2-7-2.2c-4.3,0-7.5,1.8-9.6,5.4v40H799V63.1H813.2z"/>
	<path class="st0" d="M877.5,49.2v13.9h9.7v11.1h-9.7v28.3c0,2.1,0.4,3.6,1.2,4.5s2.3,1.4,4.6,1.4c1.7,0,3.2-0.1,4.5-0.4v11.5
		c-3,0.9-6,1.4-9.2,1.4c-10.6,0-16-5.4-16.2-16.1V74.2h-8.3V63.1h8.3V49.2H877.5z"/>
	<path class="st0" d="M926.3,104.1c0-1.8-0.9-3.3-2.7-4.4s-4.8-2-8.8-2.9c-13.5-2.8-20.2-8.6-20.2-17.2c0-5,2.1-9.2,6.3-12.6
		s9.6-5.1,16.4-5.1c7.2,0,12.9,1.7,17.3,5.1c4.3,3.4,6.5,7.8,6.5,13.2H926c0-2.2-0.7-4-2.1-5.4c-1.4-1.4-3.6-2.1-6.5-2.1
		c-2.5,0-4.5,0.6-5.9,1.7c-1.4,1.2-2.1,2.6-2.1,4.4c0,1.7,0.8,3,2.4,4.1c1.6,1,4.3,1.9,8,2.7c3.8,0.8,6.9,1.6,9.5,2.5
		c8,2.9,12,8,12,15.2c0,5.2-2.2,9.3-6.7,12.5c-4.4,3.2-10.2,4.8-17.2,4.8c-4.7,0-9-0.8-12.6-2.5c-3.7-1.7-6.6-4-8.7-7
		c-2.1-2.9-3.1-6.1-3.1-9.6h14.3c0.1,2.7,1.1,4.7,3,6.2c1.8,1.4,4.3,2.1,7.4,2.1c2.9,0,5.1-0.5,6.6-1.6
		C925.5,107.3,926.3,105.9,926.3,104.1z"/>
</g>
<g>
	<path class="st1" d="M226.2,287.3c0,0,0,0.1,0,0.2c-1.9,0-3.8,0-5.7,0c0-0.1,0-0.1,0-0.2C222.4,287.3,224.3,287.3,226.2,287.3z"/>
	<path class="st2" d="M152.8,2L152.8,2c-1.2,0.1-2.5,0.1-3.7,0.1V2C150.3,2,151.5,2,152.8,2z"/>
	<path class="st3" d="M0.6,205.1c0.5-21.6,7.8-40.3,23.1-55.7c10.8-10.9,23.9-17.6,39-20.4c4.1-0.8,8.3-1.1,12.4-1.3
		c1.1-0.1,1.2,0,1.2,1.2c0.4,7.6,0.9,15.1,1.3,22.7c0.2,3.5,0.4,7,0.6,10.5c0,0.7-0.3,0.9-0.9,1c-4.1,0.6-8.1,1.5-12,3.1
		c-13.6,5.8-22.6,16-26.6,30.2c-3.3,11.6-2.3,23,2.7,34c0.3,0.6,0.6,1.3,1,1.9c0.6,0.9,0.6,1-0.3,1.5c-3.4,2.2-6.7,4.3-10.1,6.4
		c-5.7,3.7-11.5,7.3-17.2,11c-0.9,0.6-1,0.6-1.5-0.3c-6.1-10.1-10.1-21-11.9-32.7C1,213.8,0.6,209.5,0.6,205.1z"/>
	<path class="st4" d="M149,2.1c1.2,0,2.5,0,3.7,0c17.4,0.9,33.3,6,47.4,16.3c14.9,10.9,25.3,25.2,30,43.3c2.3,8.5,3,17.2,2.2,25.9
		c-0.9,10.7-4.2,20.6-9.3,30c-0.4,0.7-0.7,0.5-1.2,0.3c-7.8-3.9-15.7-7.9-23.5-11.8c-2-1-4.1-2.1-6.1-3c-0.7-0.3-0.9-0.7-0.6-1.5
		c2.7-6.1,3.9-12.5,3.8-19.1c-0.2-8.4-2.8-16-7.4-23.1c-7.8-12-19-18.9-32.8-21.7c-1.9-0.4-4-0.5-5.9-0.7c-0.7-0.1-0.9-0.3-1-1
		c-0.3-8.6-0.7-17.3-1.1-25.9c-0.1-2.2-0.2-4.4-0.3-6.7c-0.1-1.2,0-1.2,1.2-1.3C148.5,2.1,148.7,2.1,149,2.1z"/>
	<path class="st5" d="M226.2,287.3c-1.9,0-3.8,0-5.8,0c-24.4-1.2-44-11.7-58.7-31.2c-1.3-1.7-2.3-3.5-3.4-5.3
		c-0.4-0.6-0.3-0.9,0.3-1.3c9.3-6.1,18.6-12.2,27.9-18.3c0.7-0.4,0.9-0.1,1.3,0.3c3.7,4.9,8.1,9,13.4,12.1
		c5.7,3.4,11.9,5.4,18.5,5.9c18,1.2,32.4-5.6,43.4-19.8c0.6-0.8,1.1-1.5,1.7-2.3c0.6-0.9,0.8-0.9,1.8-0.4
		c6.6,3.4,13.2,6.9,19.7,10.3c3,1.6,6.1,3.2,9.1,4.7c0.7,0.4,0.8,0.7,0.4,1.4c-9.3,16.9-22.9,29.2-40.4,37.2
		c-7.8,3.6-16,5.8-24.6,6.5C229.3,287.1,227.8,287.2,226.2,287.3z"/>
	<path class="st6" d="M184.5,226.7c0,0.5-0.4,0.6-0.7,0.8c-4.9,3.2-9.8,6.4-14.7,9.6c-4.3,2.8-8.5,5.5-12.8,8.3
		c-0.7,0.5-1.1,0.5-1.6-0.3c-5.1-7.1-11.5-12.4-19.8-15.4c-6.1-2.2-12.3-2.7-18.7-2.1c-11.3,1.1-20.7,6.2-29.2,13.4
		c-2.9,2.5-5.7,5.2-8.1,8.2c-0.5,0.6-0.9,0.7-1.6,0.2c-7.7-4.8-15.4-9.7-23.1-14.5c-0.9-0.6-0.9-0.6-0.3-1.4
		c9.5-11.8,20.6-21.8,34-28.9c8.9-4.7,18.3-8,28.3-9.3c6.1-0.8,12.2-1.2,18.3-0.7c8.6,0.8,16.6,3.4,24.3,7.4
		c10.6,5.7,19,13.7,25.4,23.9C184.3,226.3,184.4,226.6,184.5,226.7z"/>
	<path class="st4" d="M261.8,201.9c-0.2,4.4-0.3,8.8-0.5,13.2c-0.1,1.9-0.1,1.9-1.9,1.6c-15.1-2.3-29.3-7.3-42.2-15.5
		c-13.6-8.7-24.2-20.2-30.7-35.1c-3.9-8.8-6-18-5.8-27.7c0.2-10.6,2.7-20.7,7.6-30.2c0.6-1.1,0.6-1.1,1.7-0.5
		c9.8,4.9,19.5,9.8,29.3,14.7c0.6,0.3,0.8,0.5,0.5,1.2c-6,12.5-5.6,25,1,37.1c5.1,9.4,12.9,16.1,22.5,20.7c4.4,2.1,8.8,3.9,13.6,5
		c1.5,0.3,2.9,0.5,4.4,0.8c0.7,0.1,1,0.4,1,1.2C262.1,192.8,261.9,197.3,261.8,201.9L261.8,201.9z"/>
	<path class="st3" d="M100.1,122.3c2.5-1.1,4.6-2.9,6.6-4.7c7-6.5,11.1-14.5,13.1-23.7c2.3-10.5,1-20.8-2.2-30.9c-0.3-1-0.6-2-1-3
		c-0.3-0.7-0.1-1.1,0.6-1.4c4.2-2.2,8.4-4.4,12.6-6.6c3.9-2,7.8-4.1,11.7-6.1c0.9-0.5,0.9-0.5,1.3,0.5c2.1,4.9,3.6,10,5,15.2
		c2.3,8.7,3.2,17.6,3,26.7c-0.3,13.4-3,26.2-9.3,38.1c-6.9,13.1-16.8,23.2-30.1,29.9c-7.2,3.6-14.9,5.8-22.9,6.6
		c-1.3,0.1-2.7,0.2-4,0.3c-0.7,0.1-1-0.2-1.1-0.9c-0.2-3-0.3-6.1-0.5-9.1c-0.4-6.3-0.8-12.6-1.1-18.9c-0.1-1.7-0.2-3.5-0.3-5.2
		c-0.1-0.7,0.3-1,0.9-1c3.6-0.1,7.1-0.9,10.5-2.1c1.9-0.6,3.8-1.3,5.4-2.4C98.9,123.1,99.5,122.8,100.1,122.3z"/>
	<path class="st7" d="M100.1,122.3c-0.5,0.5-1.2,0.8-1.9,1.1c-9.4-5.5-18.9-11-28.3-16.6c0-0.1,0.1-0.2,0.1-0.2
		c1.8-0.6,3.5-1.3,5.3-1.8c0.7-0.2,0.8-0.4,0.6-1.1c-3-8.9-4-18.1-3.6-27.4C73.9,43.6,97.2,18.1,123,8c5.2-2,10.6-3.5,16.1-4.5
		c0.2,0,0.4,0,0.6-0.1c0.6-0.1,0.7,0.1,0.7,0.6c0.1,2.3,0.2,4.6,0.3,6.8c0.3,8.4,0.6,16.8,0.9,25.2c0,0.9-0.3,1.2-1.1,1.4
		c-11.8,2.5-21.7,8.2-29.2,17.8c-5,6.5-8,13.8-9,22c-0.7,5.6-0.2,11.2,1,16.7c0.2,0.8,0.5,0.9,1.2,0.7c2.3-0.8,4.7-1.5,7.1-2.3
		c0.2-0.1,0.5-0.3,0.7-0.1c0.3,0.2,0,0.5-0.1,0.8c-4,9.3-7.9,18.7-11.9,28C100.3,121.5,100.2,121.9,100.1,122.3z"/>
	<path class="st3" d="M143.8,236.7c-0.4,4.1-0.7,8.2-1.1,12.3c-0.4,4-0.7,8.1-1.1,12.1c-0.2,2.7-0.5,5.4-0.7,8.2
		c0,0.2,0,0.5-0.3,0.6s-0.4-0.1-0.6-0.3c-1.3-1.4-2.7-2.8-4-4.2c-0.6-0.6-0.9-0.6-1.6,0c-4.6,4.4-9.4,8.4-14.9,11.7
		c-8.6,5.1-17.8,8.4-27.7,9.7c-6,0.8-11.9,0.8-17.9,0.2c-6.3-0.6-12.4-1.7-18.4-3.8c-12-4.1-22.4-10.6-31.6-19.2
		c-2-1.9-3.8-3.8-5.6-5.9c-0.8-1-0.8-1,0.3-1.7c8.8-5.6,17.6-11.3,26.5-16.9c1.7-1.1,1.3-1,2.6,0.3c7.2,7.7,15.8,13.2,26.3,15.3
		c15.2,3,28.7-0.5,40.2-11c0.7-0.7,0.7-0.8,0-1.6c-1.3-1.3-2.6-2.7-3.8-4c-0.2-0.2-0.6-0.4-0.4-0.8c0.1-0.3,0.5-0.3,0.8-0.3
		c5.6-0.2,11.2-0.5,16.8-0.7c5.2-0.2,10.3-0.4,15.5-0.7C143.6,235.9,144,236,143.8,236.7z"/>
	<path class="st6" d="M246.3,121.1c-0.4,2.9-0.8,5.7-1.2,8.4c-0.1,0.8,0.1,1,0.8,1.2c10.4,2.6,19.9,6.9,28.4,13.5
		c10.4,8,17.8,18.3,23,30.2c3.5,8.2,5.6,16.8,6.3,25.8c0.9,11.9-0.9,23.4-4.4,34.8c-0.2,0.6-0.4,0.7-1,0.4
		c-9.7-5.1-19.3-10.1-29-15.1c-0.7-0.4-0.8-0.8-0.5-1.5c1.9-5.6,2.9-11.4,2.6-17.3c-1-18-9.1-31.7-25.4-40.1
		c-1.4-0.7-2.9-1.3-4.4-1.8c-0.9-0.3-1-0.2-1.1,0.7c-0.2,1.6-0.5,3.2-0.7,4.8c0,0.2-0.1,0.4-0.2,0.7c-1.9-2.3-3.8-4.4-5.6-6.6
		c-5.4-6.3-10.7-12.6-16.1-18.9c-0.4-0.4-0.5-0.7,0.1-1.1c9.3-5.9,18.5-11.8,27.7-17.7C245.9,121.4,246,121.3,246.3,121.1z"/>
</g>
<g>
	<path class="st3" d="M358.9,171.3c4.8-1,11.6-1.5,18.1-1.5c10.1,0,16.6,1.8,21.1,6c3.7,3.2,5.7,8.2,5.7,13.9
		c0,9.6-6.1,16-13.7,18.6v0.3c5.6,1.9,9,7.1,10.7,14.7c2.4,10.2,4.1,17.2,5.6,20h-9.7c-1.2-2.1-2.8-8.3-4.9-17.4
		c-2.2-10.1-6.1-13.9-14.6-14.2h-8.9v31.6h-9.4L358.9,171.3L358.9,171.3z M368.4,204.6h9.6c10.1,0,16.4-5.5,16.4-13.9
		c0-9.4-6.8-13.5-16.8-13.6c-4.5,0-7.8,0.4-9.3,0.9L368.4,204.6L368.4,204.6z"/>
	<path class="st3" d="M422.6,218.8c0.2,12.9,8.4,18.2,18,18.2c6.8,0,10.9-1.2,14.5-2.7l1.6,6.8c-3.4,1.5-9.1,3.2-17.4,3.2
		c-16.1,0-25.8-10.6-25.8-26.4s9.3-28.2,24.6-28.2c17.1,0,21.6,15,21.6,24.7c0,1.9-0.2,3.5-0.3,4.4H422.6z M450.5,212
		c0.1-6.1-2.5-15.5-13.2-15.5c-9.6,0-13.9,8.9-14.6,15.5H450.5z"/>
	<path class="st3" d="M475.2,190.9l10.3,29.4c1.7,4.8,3.1,9.1,4.2,13.4h0.3c1.2-4.3,2.7-8.7,4.4-13.4l10.2-29.4h10L494,243.3h-9.1
		L465,190.9H475.2z"/>
	<path class="st3" d="M527.7,218.8c0.2,12.9,8.4,18.2,18,18.2c6.8,0,10.9-1.2,14.5-2.7l1.6,6.8c-3.4,1.5-9.1,3.2-17.4,3.2
		c-16.1,0-25.8-10.6-25.8-26.4s9.3-28.2,24.6-28.2c17.1,0,21.6,15,21.6,24.7c0,1.9-0.2,3.5-0.3,4.4H527.7z M555.7,212
		c0.1-6.1-2.5-15.5-13.2-15.5c-9.6,0-13.9,8.9-14.6,15.5H555.7z"/>
	<path class="st3" d="M576.6,205.1c0-5.4-0.1-9.8-0.4-14.2h8.4l0.5,8.7h0.2c2.6-5,8.7-9.8,17.3-9.8c7.3,0,18.5,4.3,18.5,22.3v31.3
		h-9.5v-30.2c0-8.4-3.1-15.5-12.1-15.5c-6.3,0-11.1,4.4-12.8,9.7c-0.4,1.2-0.6,2.8-0.6,4.4v31.5h-9.5L576.6,205.1L576.6,205.1z"/>
	<path class="st3" d="M680.5,229c0,5.4,0.1,10.2,0.4,14.3h-8.4l-0.5-8.5h-0.2c-2.5,4.2-8,9.7-17.3,9.7c-8.2,0-18.1-4.5-18.1-22.9
		V191h9.5v29c0,10,3,16.7,11.7,16.7c6.4,0,10.8-4.4,12.6-8.7c0.5-1.4,0.9-3.1,0.9-4.9V191h9.5v38H680.5z"/>
	<path class="st3" d="M701.6,218.8c0.2,12.9,8.4,18.2,18,18.2c6.8,0,10.9-1.2,14.5-2.7l1.6,6.8c-3.4,1.5-9.1,3.2-17.4,3.2
		c-16.1,0-25.8-10.6-25.8-26.4s9.3-28.2,24.6-28.2c17.1,0,21.6,15,21.6,24.7c0,1.9-0.2,3.5-0.3,4.4H701.6z M729.5,212
		c0.1-6.1-2.5-15.5-13.2-15.5c-9.6,0-13.9,8.9-14.6,15.5H729.5z"/>
	<path class="st3" d="M746.5,231.8c4.2,2.6,10.4,4.8,16.9,4.8c9.6,0,15.3-5.1,15.3-12.4c0-6.8-3.9-10.7-13.7-14.5
		c-11.9-4.2-19.3-10.4-19.3-20.7c0-11.4,9.4-19.8,23.6-19.8c7.5,0,12.9,1.7,16.1,3.6l-2.6,7.7c-2.4-1.3-7.3-3.5-13.9-3.5
		c-10,0-13.7,6-13.7,10.9c0,6.8,4.4,10.2,14.5,14.1c12.3,4.8,18.6,10.7,18.6,21.4c0,11.3-8.3,21-25.5,21c-7,0-14.7-2.1-18.6-4.7
		L746.5,231.8z"/>
	<path class="st3" d="M844.6,229c0,5.4,0.1,10.2,0.4,14.3h-8.4l-0.5-8.5h-0.2c-2.5,4.2-8,9.7-17.3,9.7c-8.2,0-18.1-4.5-18.1-22.9
		V191h9.5v29c0,10,3,16.7,11.7,16.7c6.4,0,10.8-4.4,12.6-8.7c0.5-1.4,0.9-3.1,0.9-4.9V191h9.5v38H844.6z"/>
	<path class="st3" d="M860.4,207.3c0-6.2-0.1-11.5-0.4-16.3h8.3l0.3,10.3h0.4c2.4-7,8.1-11.5,14.5-11.5c1.1,0,1.8,0.1,2.7,0.3v9
		c-1-0.2-1.9-0.3-3.2-0.3c-6.7,0-11.5,5.1-12.8,12.2c-0.2,1.3-0.4,2.8-0.4,4.4v27.9h-9.4L860.4,207.3L860.4,207.3z"/>
	<path class="st3" d="M900.1,218.8c0.2,12.9,8.4,18.2,18,18.2c6.8,0,10.9-1.2,14.5-2.7l1.6,6.8c-3.4,1.5-9.1,3.2-17.4,3.2
		c-16.1,0-25.8-10.6-25.8-26.4s9.3-28.2,24.6-28.2c17.1,0,21.6,15,21.6,24.7c0,1.9-0.2,3.5-0.3,4.4H900.1z M928,212
		c0.1-6.1-2.5-15.5-13.2-15.5c-9.6,0-13.9,8.9-14.6,15.5H928z"/>
</g>
</svg>
